<svg width="35" height="35" viewBox="0 0 35 35" fill="none" xmlns="http://www.w3.org/2000/svg">
<g clip-path="url(#clip0_69714_3923)">
<path d="M10.3223 12.375L5.19531 18.5263H7.24609V26.7978L9.29688 28.8486H15.4492V18.5263L10.3223 12.375Z" fill="#903DD1"/>
<path d="M7.24609 26.7969L0 35H8.27148L11.3477 32.9492L13.3557 28.9331L13.3984 26.7969H7.24609Z" fill="#BF82EF"/>
<path d="M24.6777 12.375L19.5508 18.5263V28.8486H26.1517L27.7539 26.7978V18.5263H29.8047L24.6777 12.375Z" fill="#305CD8"/>
<path d="M17.5 0L10.3223 6.15234H13.3984V28.8477H17.5H21.6016V6.15234H24.6777L17.5 0Z" fill="#092856"/>
<path d="M27.7537 26.7969H21.6013L21.4902 28.6256L24.0451 33.7353L26.7283 35H34.9998L27.7537 26.7969Z" fill="#7291E9"/>
<path d="M21.6016 26.7969H17.5H13.3984L8.27148 35H17.5H26.7285L21.6016 26.7969Z" fill="#3A5D91"/>
</g>
<defs>
<clipPath id="clip0_69714_3923">
<rect width="35" height="35" fill="white"/>
</clipPath>
</defs>
</svg>
