<svg width="108" height="16" viewBox="0 0 108 16" fill="none" xmlns="http://www.w3.org/2000/svg">
    <g clip-path="url(#clip0_69714_3743)">
    <path d="M7.20366 1.38347L5.38977 5.06125L1.33144 5.65291C0.603659 5.75847 0.311992 6.65569 0.83977 7.16958L3.77588 10.0307L3.08144 14.0724C2.95644 14.8029 3.72588 15.3501 4.37033 15.0085L8.00088 13.1001L11.6314 15.0085C12.2759 15.3474 13.0453 14.8029 12.9203 14.0724L12.2259 10.0307L15.162 7.16958C15.6898 6.65569 15.3981 5.75847 14.6703 5.65291L10.612 5.06125L8.7981 1.38347C8.4731 0.727913 7.53144 0.71958 7.20366 1.38347Z" fill="#FF9900"/>
    </g>
    <g clip-path="url(#clip1_69714_3743)">
    <path d="M30.2037 1.38347L28.3898 5.06125L24.3314 5.65291C23.6037 5.75847 23.312 6.65569 23.8398 7.16958L26.7759 10.0307L26.0814 14.0724C25.9564 14.8029 26.7259 15.3501 27.3703 15.0085L31.0009 13.1001L34.6314 15.0085C35.2759 15.3474 36.0453 14.8029 35.9203 14.0724L35.2259 10.0307L38.162 7.16958C38.6898 6.65569 38.3981 5.75847 37.6703 5.65291L33.612 5.06125L31.7981 1.38347C31.4731 0.727913 30.5314 0.71958 30.2037 1.38347Z" fill="#FF9900"/>
    </g>
    <g clip-path="url(#clip2_69714_3743)">
    <path d="M53.2037 1.38347L51.3898 5.06125L47.3314 5.65291C46.6037 5.75847 46.312 6.65569 46.8398 7.16958L49.7759 10.0307L49.0814 14.0724C48.9564 14.8029 49.7259 15.3501 50.3703 15.0085L54.0009 13.1001L57.6314 15.0085C58.2759 15.3474 59.0453 14.8029 58.9203 14.0724L58.2259 10.0307L61.162 7.16958C61.6898 6.65569 61.3981 5.75847 60.6703 5.65291L56.612 5.06125L54.7981 1.38347C54.4731 0.727913 53.5314 0.71958 53.2037 1.38347Z" fill="#FF9900"/>
    </g>
    <g clip-path="url(#clip3_69714_3743)">
    <path d="M76.2037 1.38347L74.3898 5.06125L70.3314 5.65291C69.6037 5.75847 69.312 6.65569 69.8398 7.16958L72.7759 10.0307L72.0814 14.0724C71.9564 14.8029 72.7259 15.3501 73.3703 15.0085L77.0009 13.1001L80.6314 15.0085C81.2759 15.3474 82.0453 14.8029 81.9203 14.0724L81.2259 10.0307L84.162 7.16958C84.6898 6.65569 84.3981 5.75847 83.6703 5.65291L79.612 5.06125L77.7981 1.38347C77.4731 0.727913 76.5314 0.71958 76.2037 1.38347Z" fill="#FF9900"/>
    </g>
    <g clip-path="url(#clip4_69714_3743)">
    <path d="M107.181 5.47712L102.811 4.841L100.859 0.889064C100.683 0.535929 100.341 0.357422 99.9986 0.357422C99.6583 0.357422 99.3183 0.533541 99.1422 0.889064L97.1891 4.84071L92.8195 5.47623C92.036 5.58966 91.7219 6.55354 92.29 7.10578L95.4509 10.1804L94.7028 14.5231C94.5966 15.1434 95.0918 15.641 95.6464 15.641C95.7936 15.641 95.9449 15.6061 96.0903 15.5291L99.9992 13.4789L103.908 15.5297C104.053 15.6058 104.204 15.6404 104.351 15.6404C104.906 15.6404 105.402 15.1446 105.296 14.524L104.548 10.181L107.71 7.10697C108.278 6.55474 107.964 5.59056 107.181 5.47712ZM103.547 9.15473L103.006 9.68071L103.134 10.4234L103.716 13.81L100.668 12.2103L99.9995 11.8598L100 2.39145L101.524 5.47473L101.857 6.15026L102.604 6.25891L106.014 6.75533L103.547 9.15473Z" fill="#FF9900"/>
    </g>
    <defs>
    <clipPath id="clip0_69714_3743">
    <rect width="16" height="16" fill="white"/>
    </clipPath>
    <clipPath id="clip1_69714_3743">
    <rect width="16" height="16" fill="white" transform="translate(23)"/>
    </clipPath>
    <clipPath id="clip2_69714_3743">
    <rect width="16" height="16" fill="white" transform="translate(46)"/>
    </clipPath>
    <clipPath id="clip3_69714_3743">
    <rect width="16" height="16" fill="white" transform="translate(69)"/>
    </clipPath>
    <clipPath id="clip4_69714_3743">
    <rect width="16" height="16" fill="white" transform="translate(92)"/>
    </clipPath>
    </defs>
</svg>