<svg width="90" height="90" viewBox="0 0 90 90" fill="none" xmlns="http://www.w3.org/2000/svg">
<circle cx="45" cy="45" r="45" fill="url(#paint0_linear_62818_2247)"/>
<g clip-path="url(#clip0_62818_2247)">
<path d="M69.2169 43.5236C69.1664 43.4898 69.1144 43.4587 69.0608 43.4302L65.5126 41.5195L45.8358 51.9374C45.313 52.2142 44.6871 52.2142 44.1644 51.9374L24.4877 41.5195L20.9394 43.4302C20.077 43.888 19.7489 44.9581 20.2067 45.8205C20.2351 45.8741 20.2663 45.9262 20.3001 45.9766L45.0001 59.0534L69.7001 45.9766C70.244 45.1658 70.0278 44.0676 69.2169 43.5236Z" fill="url(#paint1_linear_62818_2247)"/>
<path d="M69.7845 54.8644C69.6191 54.5579 69.3676 54.3065 69.0613 54.1411L65.5131 52.2305L45.8363 62.6483C45.3135 62.9252 44.6876 62.9252 44.1649 62.6483L24.4881 52.2305L20.9398 54.1411C20.0719 54.6096 19.7482 55.6928 20.2166 56.5608C20.382 56.8672 20.6335 57.1186 20.9398 57.284L44.1541 69.784C44.6825 70.0685 45.3186 70.0685 45.847 69.784L69.0613 57.284C69.9291 56.8155 70.2529 55.7323 69.7845 54.8644Z" fill="url(#paint2_linear_62818_2247)"/>
<path d="M69.2169 32.8068C69.1664 32.773 69.1144 32.7419 69.0608 32.7134L45.8465 20.2134C45.3182 19.9289 44.6821 19.9289 44.1537 20.2134L20.9394 32.7134C20.077 33.1712 19.7489 34.2413 20.2067 35.1037C20.2351 35.1573 20.2663 35.2094 20.3001 35.2598L45.0001 48.3366L69.7001 35.2598C70.244 34.449 70.0278 33.3508 69.2169 32.8068Z" fill="url(#paint3_linear_62818_2247)"/>
</g>
<defs>
<linearGradient id="paint0_linear_62818_2247" x1="86.0625" y1="86.0625" x2="-17.0734" y2="14.0767" gradientUnits="userSpaceOnUse">
<stop stop-color="#C7B0FE" stop-opacity="0.13"/>
<stop offset="1" stop-color="#305CD8" stop-opacity="0.46"/>
</linearGradient>
<linearGradient id="paint1_linear_62818_2247" x1="45.5" y1="33" x2="43.3791" y2="63.3518" gradientUnits="userSpaceOnUse">
<stop stop-color="#C7B0FE"/>
<stop offset="1" stop-color="#305CD8"/>
</linearGradient>
<linearGradient id="paint2_linear_62818_2247" x1="45.5005" y1="47" x2="43.9034" y2="70.8932" gradientUnits="userSpaceOnUse">
<stop stop-color="#C7B0FE"/>
<stop offset="1" stop-color="#305CD8"/>
</linearGradient>
<linearGradient id="paint3_linear_62818_2247" x1="42.5" y1="15" x2="43.9998" y2="56.4457" gradientUnits="userSpaceOnUse">
<stop stop-color="#C7B0FE"/>
<stop offset="1" stop-color="#305CD8"/>
</linearGradient>
<clipPath id="clip0_62818_2247">
<rect width="50" height="50" fill="white" transform="translate(20 20)"/>
</clipPath>
</defs>
</svg>
