<svg width="90" height="90" viewBox="0 0 90 90" fill="none" xmlns="http://www.w3.org/2000/svg">
<circle cx="45" cy="45" r="45" fill="url(#paint0_linear_62818_2236)"/>
<g clip-path="url(#clip0_62818_2236)">
<path d="M63.7779 54.7893L70 48.5675L63.7779 42.3454L64.7804 41.3429C66.5149 39.6083 66.5149 36.7862 64.7808 35.0517C63.9404 34.2117 62.8231 33.749 61.6348 33.749C60.4469 33.749 59.3296 34.2117 58.4896 35.0517L57.4871 36.0542L51.2649 29.832L49.4289 31.6684V34.5706C52.6768 35.3446 55.0995 38.2709 55.0995 41.7522C55.0995 45.2338 52.6768 48.1601 49.4289 48.9337V57.9329H44.0426L42.9688 59.0068L51.2649 67.3026L57.4871 61.0804L58.3511 61.9449C60.0856 63.6794 62.9078 63.6794 64.6423 61.9449C66.3768 60.2103 66.3768 57.3882 64.6423 55.6537L63.7779 54.7893Z" fill="url(#paint1_linear_62818_2236)"/>
<path d="M46.4957 54.9986V46.1993H47.7175C50.1708 46.1993 52.1662 44.2038 52.1662 41.7506C52.1662 39.2978 50.1708 37.3023 47.7175 37.3023H46.4957V28.5029H37.6963V27.0854C37.6963 24.6322 35.7009 22.6367 33.2477 22.6367C30.7948 22.6367 28.7993 24.6322 28.7993 27.0854V28.5029H20V37.3023H21.2222C23.3745 37.3023 25.1742 38.8385 25.5832 40.8721C25.7606 41.12 25.8662 41.4229 25.8662 41.7506C25.8662 42.0783 25.7606 42.3812 25.5832 42.6295C25.1742 44.6627 23.3745 46.1993 21.2222 46.1993H20V54.9986H28.7993V53.5807C28.7993 51.1279 30.7948 49.1324 33.2477 49.1324C35.7009 49.1324 37.6963 51.1279 37.6963 53.5807V54.9986H46.4957Z" fill="url(#paint2_linear_62818_2236)"/>
</g>
<defs>
<linearGradient id="paint0_linear_62818_2236" x1="86.0625" y1="86.0625" x2="-17.0734" y2="14.0767" gradientUnits="userSpaceOnUse">
<stop stop-color="#C7B0FE" stop-opacity="0.13"/>
<stop offset="1" stop-color="#305CD8" stop-opacity="0.46"/>
</linearGradient>
<linearGradient id="paint1_linear_62818_2236" x1="93.9518" y1="63.6267" x2="42.4223" y2="61.6539" gradientUnits="userSpaceOnUse">
<stop stop-color="#C7B0FE"/>
<stop offset="1" stop-color="#305CD8"/>
</linearGradient>
<linearGradient id="paint2_linear_62818_2236" x1="60.5" y1="56.5" x2="15.7765" y2="35.3876" gradientUnits="userSpaceOnUse">
<stop stop-color="#C7B0FE"/>
<stop offset="1" stop-color="#305CD8"/>
</linearGradient>
<clipPath id="clip0_62818_2236">
<rect width="50" height="50" fill="white" transform="translate(20 20)"/>
</clipPath>
</defs>
</svg>
