<svg width="90" height="90" viewBox="0 0 90 90" fill="none" xmlns="http://www.w3.org/2000/svg">
<circle cx="45" cy="45" r="45" fill="url(#paint0_linear_62818_2223)"/>
<path d="M58.125 46.875C55.9 46.875 53.7249 47.5348 51.8748 48.771C50.0248 50.0071 48.5828 51.7641 47.7314 53.8198C46.8799 55.8755 46.6571 58.1375 47.0912 60.3198C47.5253 62.5021 48.5967 64.5066 50.1701 66.08C51.7434 67.6533 53.748 68.7248 55.9302 69.1588C58.1125 69.5929 60.3745 69.3701 62.4302 68.5186C64.4859 67.6672 66.2429 66.2252 67.479 64.3752C68.7152 62.5251 69.375 60.35 69.375 58.125C69.372 55.1422 68.1858 52.2825 66.0767 50.1733C63.9675 48.0642 61.1078 46.878 58.125 46.875ZM63.5625 60.8381C63.4525 61.0586 63.3002 61.2552 63.1142 61.4167C62.9282 61.5783 62.7121 61.7016 62.4785 61.7796C62.2448 61.8576 61.998 61.8888 61.7523 61.8714C61.5065 61.854 61.2666 61.7883 61.0463 61.6781L57.2963 59.8031C56.9828 59.6487 56.7188 59.4097 56.5339 59.1132C56.349 58.8167 56.2507 58.4744 56.25 58.125V52.5C56.25 52.0027 56.4475 51.5258 56.7992 51.1742C57.1508 50.8225 57.6277 50.625 58.125 50.625C58.6223 50.625 59.0992 50.8225 59.4508 51.1742C59.8025 51.5258 60 52.0027 60 52.5V56.9662L62.7131 58.3219C62.9344 58.431 63.1319 58.5828 63.2944 58.7684C63.4569 58.9541 63.5812 59.1699 63.6601 59.4037C63.739 59.6375 63.771 59.8845 63.7542 60.1306C63.7375 60.3768 63.6723 60.6172 63.5625 60.8381Z" fill="url(#paint1_linear_62818_2223)"/>
<path d="M65.625 28.125C65.625 26.6332 65.0324 25.2024 63.9775 24.1475C62.9226 23.0926 61.4918 22.5 60 22.5H54.375V20.625C54.375 20.1277 54.1775 19.6508 53.8258 19.2992C53.4742 18.9475 52.9973 18.75 52.5 18.75C52.0027 18.75 51.5258 18.9475 51.1742 19.2992C50.8225 19.6508 50.625 20.1277 50.625 20.625V22.5H33.75V20.625C33.75 20.1277 33.5525 19.6508 33.2008 19.2992C32.8492 18.9475 32.3723 18.75 31.875 18.75C31.3777 18.75 30.9008 18.9475 30.5492 19.2992C30.1975 19.6508 30 20.1277 30 20.625V22.5H24.375C22.8832 22.5 21.4524 23.0926 20.3975 24.1475C19.3426 25.2024 18.75 26.6332 18.75 28.125V33.75H65.625V28.125Z" fill="url(#paint2_linear_62818_2223)"/>
<path d="M58.125 43.125C60.7606 43.1213 63.3495 43.8203 65.625 45.15V37.5H18.75V60C18.7545 61.4905 19.3485 62.9186 20.4024 63.9726C21.4564 65.0265 22.8845 65.6205 24.375 65.625H45.15C43.8203 63.3495 43.1213 60.7606 43.125 58.125C43.1305 54.1484 44.7126 50.3363 47.5244 47.5244C50.3363 44.7126 54.1484 43.1305 58.125 43.125ZM30 58.125H26.25C25.7527 58.125 25.2758 57.9275 24.9242 57.5758C24.5725 57.2242 24.375 56.7473 24.375 56.25C24.375 55.7527 24.5725 55.2758 24.9242 54.9242C25.2758 54.5725 25.7527 54.375 26.25 54.375H30C30.4973 54.375 30.9742 54.5725 31.3258 54.9242C31.6775 55.2758 31.875 55.7527 31.875 56.25C31.875 56.7473 31.6775 57.2242 31.3258 57.5758C30.9742 57.9275 30.4973 58.125 30 58.125ZM30 48.75H26.25C25.7527 48.75 25.2758 48.5525 24.9242 48.2008C24.5725 47.8492 24.375 47.3723 24.375 46.875C24.375 46.3777 24.5725 45.9008 24.9242 45.5492C25.2758 45.1975 25.7527 45 26.25 45H30C30.4973 45 30.9742 45.1975 31.3258 45.5492C31.6775 45.9008 31.875 46.3777 31.875 46.875C31.875 47.3723 31.6775 47.8492 31.3258 48.2008C30.9742 48.5525 30.4973 48.75 30 48.75ZM41.25 48.75H37.5C37.0027 48.75 36.5258 48.5525 36.1742 48.2008C35.8225 47.8492 35.625 47.3723 35.625 46.875C35.625 46.3777 35.8225 45.9008 36.1742 45.5492C36.5258 45.1975 37.0027 45 37.5 45H41.25C41.7473 45 42.2242 45.1975 42.5758 45.5492C42.9275 45.9008 43.125 46.3777 43.125 46.875C43.125 47.3723 42.9275 47.8492 42.5758 48.2008C42.2242 48.5525 41.7473 48.75 41.25 48.75Z" fill="url(#paint3_linear_62818_2223)"/>
<defs>
<linearGradient id="paint0_linear_62818_2223" x1="86.0625" y1="86.0625" x2="-17.0734" y2="14.0767" gradientUnits="userSpaceOnUse">
<stop stop-color="#C7B0FE" stop-opacity="0.13"/>
<stop offset="1" stop-color="#305CD8" stop-opacity="0.46"/>
</linearGradient>
<linearGradient id="paint1_linear_62818_2223" x1="76" y1="65.5" x2="27.8872" y2="53.4036" gradientUnits="userSpaceOnUse">
<stop stop-color="#305CD8"/>
<stop offset="1" stop-color="#C7B0FE"/>
</linearGradient>
<linearGradient id="paint2_linear_62818_2223" x1="107.16" y1="32.2785" x2="20.0669" y2="17.8346" gradientUnits="userSpaceOnUse">
<stop stop-color="#C7B0FE"/>
<stop offset="1" stop-color="#305CD8"/>
</linearGradient>
<linearGradient id="paint3_linear_62818_2223" x1="75" y1="50.6725" x2="18.884" y2="53.415" gradientUnits="userSpaceOnUse">
<stop stop-color="#C7B0FE"/>
<stop offset="1" stop-color="#305CD8"/>
</linearGradient>
</defs>
</svg>
