<svg width="162" height="50" viewBox="0 0 162 50" fill="none" xmlns="http://www.w3.org/2000/svg">
<path d="M53.2076 30.6787C51.7345 29.8296 50.0117 29.405 48.0393 29.405C46.0668 29.405 44.2317 29.8569 42.6937 30.7581C41.1557 31.6593 39.9647 32.8958 39.1233 34.4648C38.2819 36.0339 37.86 37.8389 37.86 39.8772C37.86 41.9156 38.2869 43.656 39.1408 45.1729C39.9947 46.6899 41.1931 47.8741 42.7312 48.7232C44.2692 49.5723 46.0369 49.9994 48.0368 49.9994C49.6147 49.9994 51.0279 49.7039 52.2788 49.1155C53.5272 48.5271 54.5933 47.7376 55.4746 46.742C56.356 45.7489 56.9802 44.6367 57.3497 43.4077H51.9068C51.5647 44.088 51.0704 44.6367 50.4287 45.0562C49.7845 45.4758 48.9756 45.6844 48.0018 45.6844C47.0281 45.6844 46.2067 45.4684 45.4576 45.0364C44.7086 44.6044 44.1293 43.9961 43.7224 43.2116C43.3903 42.576 43.1981 41.8411 43.1356 41.0143H57.8266C57.879 40.6494 57.9065 40.3092 57.9065 39.9939V39.1299C57.9065 37.2728 57.492 35.6119 56.6631 34.1471C55.8342 32.6822 54.6832 31.5253 53.2101 30.6762L53.2076 30.6787ZM43.238 37.7595C43.3454 37.1636 43.5176 36.6323 43.7598 36.1705C44.1943 35.3462 44.791 34.733 45.555 34.3258C46.3165 33.9211 47.1579 33.7175 48.0792 33.7175C49.3151 33.7175 50.3488 34.085 51.1752 34.8149C52.0041 35.5473 52.4436 36.528 52.496 37.757H43.2355L43.238 37.7595ZM76.2827 30.6787C74.8096 29.8296 73.0868 29.405 71.1144 29.405C69.1419 29.405 67.3068 29.8569 65.7688 30.7581C64.2308 31.6593 63.0398 32.8958 62.1984 34.4648C61.357 36.0339 60.9351 37.8389 60.9351 39.8772C60.9351 41.9156 61.362 43.656 62.2159 45.1729C63.0698 46.6899 64.2682 47.8741 65.8062 48.7232C67.3443 49.5723 69.112 49.9994 71.1119 49.9994C72.6898 49.9994 74.103 49.7039 75.3539 49.1155C76.6022 48.5271 77.6684 47.7376 78.5497 46.742C79.4311 45.7489 80.0553 44.6367 80.4248 43.4077H74.9818C74.6398 44.088 74.1454 44.6367 73.5038 45.0562C72.8596 45.4758 72.0506 45.6844 71.0769 45.6844C70.1032 45.6844 69.2817 45.4684 68.5327 45.0364C67.7837 44.6044 67.2044 43.9961 66.7975 43.2116C66.4654 42.576 66.2731 41.8411 66.2107 41.0143H80.9017C80.9541 40.6494 80.9816 40.3092 80.9816 39.9939V39.1299C80.9816 37.2728 80.5671 35.6119 79.7382 34.1471C78.9093 32.6822 77.7583 31.5253 76.2852 30.6762L76.2827 30.6787ZM66.3131 37.7595C66.4204 37.1636 66.5927 36.6323 66.8349 36.1705C67.2693 35.3462 67.8661 34.733 68.6301 34.3258C69.3916 33.9211 70.233 33.7175 71.1543 33.7175C72.3902 33.7175 73.4239 34.085 74.2503 34.8149C75.0792 35.5473 75.5187 36.528 75.5711 37.757H66.3106L66.3131 37.7595ZM89.171 45.1332H99.4676V49.5277H83.2137V45.2921L93.1558 34.2687H83.3335V29.8742H99.2704V34.1495L89.171 45.1332ZM116.982 30.3435C115.614 29.7154 113.996 29.4025 112.131 29.4025C110.473 29.4025 108.98 29.6905 107.654 30.2665C106.326 30.8425 105.26 31.6469 104.459 32.6798C103.657 33.7126 103.178 34.949 103.018 36.3865H108.226C108.384 35.4977 108.818 34.8298 109.527 34.3854C110.236 33.941 111.093 33.7175 112.091 33.7175C112.985 33.7175 113.714 33.874 114.281 34.1893C114.845 34.5021 115.26 34.9738 115.524 35.6019C115.786 36.2301 115.919 37.027 115.919 37.9953H110.988C109.095 37.9953 107.517 38.251 106.254 38.76C104.99 39.269 104.052 39.9815 103.432 40.8976C102.813 41.8138 102.506 42.8714 102.506 44.0756C102.506 45.1481 102.768 46.1337 103.295 47.0375C103.822 47.9412 104.623 48.6587 105.702 49.195C106.781 49.7312 108.149 49.9994 109.804 49.9994C110.593 49.9994 111.317 49.915 111.974 49.7437C112.631 49.5723 113.222 49.3315 113.749 49.0187C114.276 48.7059 114.735 48.3384 115.13 47.9213C115.524 47.5042 115.866 47.0325 116.156 46.5086L116.748 49.5301H121.244V37.4094C121.244 35.6839 120.875 34.2315 120.141 33.0546C119.404 31.8778 118.353 30.9766 116.985 30.3485L116.982 30.3435ZM115.682 41.2477C115.602 41.8758 115.452 42.4692 115.227 43.0328C115.005 43.5964 114.695 44.0929 114.301 44.5224C113.906 44.9544 113.439 45.2946 112.9 45.5429C112.361 45.7911 111.749 45.9153 111.065 45.9153C110.486 45.9153 109.974 45.8234 109.527 45.6397C109.08 45.456 108.731 45.1953 108.481 44.8551C108.231 44.515 108.106 44.0979 108.106 43.5989C108.106 43.1271 108.231 42.7175 108.481 42.3625C108.731 42.0099 109.113 41.7294 109.624 41.5183C110.136 41.3098 110.8 41.2055 111.617 41.2055H115.682V41.2452V41.2477ZM135.371 29.9115C136.305 29.5714 137.324 29.4025 138.427 29.4025V35.011H136.772C135.955 35.011 135.214 35.1029 134.542 35.2866C133.871 35.4704 133.286 35.7708 132.787 36.1879C132.288 36.6075 131.906 37.1686 131.643 37.8737C131.381 38.5788 131.249 39.4701 131.249 40.5401V49.5227H125.923V29.8693H130.657L131.132 33.5164C131.631 32.6798 132.23 31.9548 132.927 31.3391C133.623 30.7258 134.44 30.2467 135.374 29.9065L135.371 29.9115ZM156.676 21.2815V32.4215C156.019 31.4806 155.15 30.7407 154.072 30.2045C152.993 29.6682 151.73 29.4 150.284 29.4C148.469 29.4 146.834 29.8445 145.373 30.7333C143.912 31.6221 142.769 32.8461 141.94 34.4003C141.111 35.957 140.697 37.7297 140.697 39.7159C140.697 41.702 141.111 43.4375 141.94 44.9917C142.769 46.5484 143.9 47.7699 145.333 48.6587C146.766 49.5475 148.389 49.9919 150.204 49.9919C151.31 49.9919 152.269 49.8479 153.086 49.5599C153.9 49.2719 154.596 48.8797 155.175 48.3831C155.755 47.8866 156.254 47.3627 156.673 46.814L157.265 49.5202H161.999V21.2765H156.673L156.676 21.2815ZM156.124 42.6405C155.677 43.4896 155.053 44.1575 154.249 44.6416C153.448 45.1258 152.519 45.3666 151.468 45.3666C150.417 45.3666 149.52 45.1258 148.706 44.6416C147.89 44.1575 147.253 43.4847 146.794 42.6207C146.334 41.7567 146.102 40.776 146.102 39.6786C146.102 38.5812 146.332 37.6055 146.794 36.7564C147.253 35.9073 147.892 35.2395 148.706 34.7553C149.52 34.2712 150.429 34.0304 151.428 34.0304C152.479 34.0304 153.413 34.2737 154.229 34.7553C155.043 35.2395 155.675 35.9073 156.122 36.7564C156.569 37.6055 156.793 38.5937 156.793 39.7183C156.793 40.843 156.569 41.7914 156.122 42.6405H156.124ZM31.678 26.2048H36.7988L29.9902 49.9969H22.6921L19.4863 43.2364L22.2128 37.4938L25.7981 45.0538H26.2825L31.678 26.2048ZM17.4689 27.4933L18.4002 29.4522L15.6737 35.2022L14.8323 33.4345L14.7424 33.2433L9.75391 22.7289L14.1932 20.5938L17.4689 27.4933Z" fill="url(#paint0_linear_69686_1030)"/>
<g style="mix-blend-mode:multiply">
<path d="M17.4706 27.4941L16.8789 28.7405L14.7441 33.2442L14.834 33.4353L15.6754 35.2031L18.4019 29.453L17.4706 27.4941Z" fill="#D1D3D4"/>
</g>
<path d="M24.2236 17.1781L28.6653 19.3133L25.0201 26.9999L14.1117 49.9975H6.81117L0 26.2054H5.12586L10.5164 45.0544H11.0007L15.6747 35.2004L18.4011 29.4503L24.2236 17.1756V17.1781ZM30.5754 9.58836C29.4493 9.04712 28.0936 9.4965 27.5193 10.6013L25.2747 14.9213L29.7514 17.0763L31.4218 13.1908L31.6939 12.5602C32.1808 11.4306 31.6864 10.1222 30.5754 9.58836ZM37.8534 4.78177L38.7847 1.6833L36.5551 4.03694L33.4391 3.1084L35.8061 5.32549L34.8723 8.42395L37.1019 6.07031L40.2179 6.99886L37.8559 4.78177H37.8534ZM29.292 4.98535L28.8601 6.42286L29.8962 5.33045L31.3419 5.76493L30.2433 4.73459L30.6752 3.29709L29.6391 4.38949L28.1935 3.95998L29.292 4.98783V4.98535ZM38.1081 8.41154C37.7036 8.41154 37.3741 8.73926 37.3741 9.14147C37.3741 9.54367 37.7036 9.87636 38.1081 9.87636C38.5126 9.87636 38.8471 9.54864 38.8471 9.14147C38.8471 8.7343 38.5176 8.41154 38.1081 8.41154ZM28.4956 2.11033C29.0823 2.11033 29.5542 1.63613 29.5542 1.05268C29.5542 0.469239 29.0823 0 28.4956 0C27.9088 0 27.4319 0.474204 27.4319 1.05268C27.4319 1.63116 27.9088 2.11033 28.4956 2.11033Z" fill="url(#paint1_linear_69686_1030)"/>
<defs>
<linearGradient id="paint0_linear_69686_1030" x1="9.96613" y1="14.9778" x2="190.36" y2="60.7374" gradientUnits="userSpaceOnUse">
<stop stop-color="#305CD8"/>
<stop offset="1" stop-color="#903DD1"/>
</linearGradient>
<linearGradient id="paint1_linear_69686_1030" x1="1.58295" y1="46.7153" x2="32.3933" y2="-2.33154" gradientUnits="userSpaceOnUse">
<stop stop-color="#305CD8"/>
<stop offset="0.48" stop-color="#903DD1"/>
<stop offset="1" stop-color="#EAD53F"/>
</linearGradient>
</defs>
</svg>