<svg width="57" height="57" viewBox="0 0 57 57" fill="none" xmlns="http://www.w3.org/2000/svg">
<g opacity="0.6">
<path d="M7.63186 54.9056C4.84161 54.9056 2.88247 54.3911 2.84289 54.3713C2.58563 54.2922 2.36798 54.0943 2.30861 53.837C2.26903 53.6787 -1.86688 37.4715 14.3008 30.8817C14.6965 30.7234 15.1319 30.9015 15.31 31.2973C15.4683 31.6931 15.2902 32.1285 14.8944 32.3066C1.25976 37.8673 3.15952 50.4531 3.71361 53.0059C6.2664 53.56 18.8522 55.5389 24.4723 41.924C24.6306 41.5282 25.0858 41.3501 25.4815 41.5085C25.8773 41.6668 26.0554 42.1219 25.8971 42.5177C21.5237 53.1048 13.0342 54.9254 7.67142 54.9056H7.63186Z" fill="#EAD53F"/>
<path d="M7.63141 55.2865C4.72242 55.2865 2.7633 54.7522 2.74352 54.7522C2.34773 54.6533 2.0311 54.3367 1.93216 53.9409C1.89258 53.7628 -2.28288 37.2191 14.142 30.5305C14.4191 30.4117 14.7356 30.4117 15.0127 30.5305C15.2897 30.6492 15.5272 30.8669 15.6459 31.1637C15.7647 31.4408 15.7647 31.7574 15.6459 32.0344C15.5272 32.3115 15.3095 32.5292 15.0127 32.6479C2.05086 37.9316 3.4361 49.7456 4.00998 52.6744C6.91897 53.2483 18.7331 54.7127 24.0959 41.7706C24.2146 41.4936 24.4323 41.2561 24.7291 41.1374C25.0061 41.0186 25.3228 41.0186 25.5998 41.1374C25.8769 41.2561 26.1144 41.4738 26.2331 41.7508C26.3518 42.0279 26.3518 42.3445 26.2331 42.6413C21.6816 53.6638 12.638 55.2865 7.65116 55.2667L7.63141 55.2865ZM14.5773 31.2033C14.5773 31.2033 14.4784 31.2033 14.4388 31.2231C-1.35281 37.6545 2.64457 53.5649 2.68415 53.7232C2.72373 53.8617 2.82264 53.9607 2.96117 54.0002C2.96117 54.0002 4.88069 54.5148 7.65116 54.5148C13.5087 54.5148 21.365 52.4369 25.5207 42.3643C25.5603 42.2654 25.5603 42.1664 25.5207 42.0675C25.4811 41.9685 25.402 41.8894 25.3228 41.8696C25.2239 41.83 25.1249 41.83 25.026 41.8696C24.927 41.9092 24.8479 41.9883 24.8083 42.0873C19.0497 55.9989 6.14723 53.9409 3.61424 53.3868L3.37678 53.3274L3.31741 53.09C2.78311 50.557 0.784396 37.6347 14.7357 31.9553C14.8346 31.9157 14.9137 31.8365 14.9533 31.7574C14.9929 31.6584 14.9929 31.5595 14.9533 31.4605C14.9137 31.3616 14.8346 31.2824 14.7555 31.2429C14.7159 31.2429 14.6565 31.2231 14.6169 31.2231L14.5773 31.2033Z" fill="#EAD53F"/>
<path d="M8.12514 50.5225C7.37316 50.5225 6.91802 50.4631 6.89823 50.4631C6.56181 50.4235 6.30452 50.1465 6.24516 49.8101C6.24516 49.7111 4.84014 38.9855 16.3969 33.0884C16.6938 32.93 17.05 32.9894 17.2875 33.2269L23.521 39.5C23.7585 39.7375 23.8179 40.0937 23.6595 40.3905C18.9102 49.5924 11.1133 50.5225 8.12514 50.5225ZM7.72933 48.9987C9.90613 49.1175 17.327 48.8404 22.0368 40.1926L16.5948 34.7308C8.0064 39.3813 7.63043 46.8615 7.70959 48.9987H7.72933Z" fill="#EAD53F"/>
<path d="M8.12618 50.912C7.39399 50.912 6.93885 50.8527 6.83991 50.8329C6.32539 50.7537 5.92957 50.358 5.8702 49.8632C5.8702 49.7643 4.34647 38.8012 16.2199 32.7457C16.675 32.528 17.2093 32.6072 17.5655 32.9634L23.7991 39.2365C24.1553 39.5927 24.2344 40.127 23.997 40.5822C19.1684 49.9424 11.2726 50.9318 8.10637 50.912H8.12618ZM16.7542 33.3988C16.7542 33.3988 16.6354 33.3988 16.5761 33.4383C5.29633 39.1772 6.6222 49.6455 6.6222 49.7643C6.64198 49.9226 6.78052 50.0611 6.93883 50.0809C6.97841 50.0809 7.41376 50.1403 8.10637 50.1403C11.1341 50.1403 18.6737 49.1904 23.3043 40.226C23.3835 40.0874 23.3439 39.8896 23.245 39.7708L17.0114 33.4977C17.0114 33.4977 16.8334 33.379 16.7344 33.379L16.7542 33.3988ZM8.30428 49.4081C8.06681 49.4081 7.86892 49.4081 7.69082 49.4081H7.33463V49.0321C7.25548 46.7959 7.65125 39.1376 16.4178 34.408L16.6751 34.2695L22.5128 40.1468L22.3742 40.4041C17.9217 48.5572 11.0747 49.4279 8.30428 49.4279V49.4081ZM8.08656 48.6363C10.5404 48.7155 17.1698 48.0426 21.5431 40.2655L16.5167 35.1996C8.79899 39.5136 8.06678 46.1627 8.08656 48.6363Z" fill="#EAD53F"/>
<path d="M26.8858 44.7314C26.6879 44.7314 26.4901 44.6523 26.3515 44.5138L12.2816 30.3844C12.0441 30.1469 11.9847 29.7907 12.143 29.4939C21.622 11.4661 32.2883 4.61908 39.5509 2.0465C39.8279 1.94756 40.1445 2.02671 40.3424 2.2246L54.6498 16.6112C54.8675 16.8289 54.9269 17.1257 54.828 17.4226C52.196 24.6852 45.2897 35.2921 27.2223 44.6721C27.1035 44.7314 26.9848 44.7512 26.8661 44.7512L26.8858 44.7314ZM13.7658 29.6918L27.0244 43.0296C43.9044 34.1443 50.5931 24.2498 53.2251 17.3236L39.6102 3.62963C32.6841 6.22199 22.75 12.8513 13.7658 29.6918Z" fill="#EAD53F"/>
<path d="M26.8849 45.1272C26.5683 45.1272 26.2913 45.0084 26.0736 44.7908L12.0036 30.6614C11.6474 30.3052 11.5682 29.7709 11.8057 29.3158C21.344 11.189 32.0895 4.28263 39.4312 1.67048C39.8468 1.53196 40.3217 1.6309 40.6383 1.94753L54.9458 16.3342C55.2624 16.6508 55.3614 17.1257 55.203 17.5413C52.5513 24.8632 45.5856 35.5691 27.4192 45.0084C27.2609 45.0876 27.063 45.147 26.8849 45.147V45.1272ZM39.8269 2.36309C39.8269 2.36309 39.7478 2.36309 39.6884 2.38288C32.4852 4.93567 21.9178 11.7431 12.4785 29.6522C12.3993 29.8105 12.4191 29.9886 12.5378 30.1073L26.6079 44.2367C26.7266 44.3554 26.9047 44.3752 27.063 44.3158C45.0117 34.9952 51.8785 24.4674 54.4906 17.2642C54.55 17.1257 54.4906 16.9674 54.3917 16.8685L40.0842 2.48183C40.0842 2.48183 39.9061 2.36309 39.8071 2.36309H39.8269ZM26.9641 43.5045L13.2898 29.7709L13.4284 29.5136C22.5313 12.4555 32.6238 5.82617 39.4906 3.27339L39.728 3.19423L53.6991 17.2444L53.6199 17.4819C51.0077 24.3289 44.3191 34.3817 27.2411 43.3857L26.9839 43.5243L26.9641 43.5045ZM14.2397 29.6324L27.1026 42.5744C43.6066 33.8276 50.1766 24.131 52.7888 17.4423L39.5103 4.10453C32.8018 6.65731 23.0656 13.1877 14.2397 29.6522V29.6324Z" fill="#EAD53F"/>
<path d="M33.8314 56.3174C32.8815 56.3174 31.9712 55.9414 31.2588 55.229C31.1994 55.1697 31.14 55.0905 31.1005 55.0114L26.173 44.3055C25.9949 43.9295 26.173 43.4744 26.549 43.2963C26.925 43.1181 27.3802 43.2963 27.5583 43.6722L32.4264 54.2396C33.1585 54.8926 34.0491 54.8728 34.6625 54.6156C35.2958 54.3583 35.9884 53.6855 35.9884 52.6367L38.6401 35.8952C38.6994 35.4796 39.0952 35.2025 39.5108 35.2619C39.9264 35.3213 40.2232 35.7171 40.1441 36.1326L37.4923 52.7554C37.4923 54.1604 36.6216 55.4467 35.2166 56.0206C34.7417 56.2185 34.2667 56.3174 33.7918 56.2976L33.8314 56.3174Z" fill="#EAD53F"/>
<path d="M33.831 56.7088C32.7624 56.7088 31.7532 56.2734 30.9814 55.5017C30.8825 55.4027 30.8033 55.284 30.744 55.1652L25.8165 44.4594C25.678 44.1823 25.678 43.8657 25.7769 43.5887C25.8758 43.2918 26.0936 43.0741 26.3706 42.9356C26.6477 42.7971 26.9643 42.7971 27.2413 42.896C27.5382 42.995 27.7558 43.2127 27.8943 43.4897L32.7229 53.9779C33.4551 54.5914 34.2664 54.3341 34.5039 54.2352C35.0382 54.0175 35.5923 53.4832 35.5923 52.6125L38.2638 35.8116C38.3627 35.1981 38.9366 34.7628 39.5699 34.8617C40.2031 34.9606 40.6385 35.5543 40.5396 36.1876L37.8878 52.8103C37.8878 54.3341 36.9182 55.7589 35.3944 56.3724C34.8799 56.5901 34.3455 56.689 33.8112 56.689L33.831 56.7088ZM26.8851 43.6084C26.8851 43.6084 26.7664 43.6084 26.7268 43.648C26.6278 43.6876 26.5685 43.7668 26.5289 43.8657C26.4893 43.9647 26.4893 44.0636 26.5289 44.1625L31.4564 54.8684C31.4564 54.8684 31.4959 54.9476 31.5355 54.9871C32.4854 55.937 33.8904 56.2141 35.1173 55.6995C36.364 55.185 37.1556 54.0373 37.1556 52.7906L39.8073 36.1084C39.8469 35.8907 39.6886 35.6928 39.4907 35.673C39.2928 35.6533 39.0752 35.7918 39.0554 35.9897L36.4037 52.7312C36.4037 53.9185 35.5923 54.6903 34.8403 55.0069C34.1279 55.3038 33.0593 55.3433 32.1886 54.5518L32.0896 54.433L27.2215 43.8657C27.2215 43.8657 27.1028 43.7074 27.0039 43.6678C26.9643 43.6678 26.9247 43.648 26.8653 43.648L26.8851 43.6084Z" fill="#EAD53F"/>
<path d="M12.8145 30.6165C12.7156 30.6165 12.5968 30.5967 12.4979 30.5373L1.69307 25.4318C1.69307 25.4318 1.53473 25.3328 1.47536 25.2735C0.406754 24.2049 0.10993 22.6613 0.683812 21.2563C1.27748 19.8513 2.56377 19.0003 4.08753 19.0003L20.9478 16.2892C21.3633 16.2299 21.7591 16.5069 21.8185 16.9225C21.8778 17.3381 21.6008 17.7338 21.1853 17.7932L4.20626 20.5241C3.01892 20.5241 2.36588 21.2167 2.10862 21.85C1.85137 22.4634 1.83158 23.3539 2.48462 24.0861L13.1509 29.1125C13.5269 29.2906 13.705 29.7458 13.5269 30.1416C13.3884 30.4186 13.1114 30.5769 12.8343 30.5769L12.8145 30.6165Z" fill="#EAD53F"/>
<path d="M12.8153 30.9881C12.6372 30.9881 12.4789 30.9485 12.3206 30.8693L1.51577 25.7638C1.39703 25.7044 1.27829 25.6252 1.19913 25.5263C0.0117919 24.339 -0.324626 22.6371 0.328412 21.0936C0.98145 19.55 2.40625 18.6001 4.08832 18.6001L20.8892 15.889C21.5224 15.7901 22.1161 16.2255 22.2151 16.8389C22.2547 17.1358 22.1953 17.4524 22.0172 17.6898C21.8391 17.9471 21.562 18.1054 21.2652 18.145L4.28622 20.8759C3.0593 20.8759 2.60412 21.6476 2.4656 21.9643C2.26771 22.4392 2.22814 23.1516 2.72287 23.7453L13.3298 28.7519C13.6069 28.8904 13.8245 29.1081 13.9235 29.4049C14.0224 29.7018 14.0026 29.9986 13.8839 30.2757C13.686 30.6714 13.2902 30.9287 12.8351 30.9287L12.8153 30.9881ZM21.0673 16.6608C21.0673 16.6608 21.0277 16.6608 21.0079 16.6608L4.14768 19.3719C2.72287 19.3719 1.5553 20.1437 1.04079 21.4102C0.526273 22.6569 0.783562 24.0421 1.75322 24.992C1.7928 25.0316 1.81257 25.0514 1.85215 25.0712L12.657 30.1767C12.8351 30.2559 13.0725 30.1767 13.1715 29.9986C13.2111 29.8997 13.2111 29.8007 13.1715 29.7018C13.1319 29.6028 13.0725 29.5237 12.9736 29.4841L2.16878 24.3587C1.397 23.488 1.43658 22.4194 1.73342 21.707C2.14899 20.7374 3.05926 20.1437 4.18724 20.1437L21.1069 17.4128C21.2058 17.4128 21.3048 17.3336 21.3642 17.2545C21.4235 17.1753 21.4433 17.0764 21.4235 16.9774C21.4037 16.7795 21.2256 16.6608 21.0475 16.6608H21.0673Z" fill="#EAD53F"/>
<path d="M35.2958 30.6121C32.8617 30.6121 30.586 29.6622 28.8841 27.9406C27.1625 26.2189 26.2324 23.9432 26.2324 21.5091C26.2324 19.0751 27.1823 16.7993 28.904 15.0975C32.4462 11.5552 38.2246 11.575 41.747 15.1371C45.2892 18.6793 45.2695 24.4577 41.7075 27.9801C39.9858 29.7018 37.7101 30.6319 35.276 30.6319L35.2958 30.6121ZM35.3354 13.9893C33.3961 13.9893 31.4765 14.7215 29.9923 16.1859C28.5675 17.6107 27.776 19.5104 27.776 21.5289C27.776 23.5474 28.5478 25.4471 29.9726 26.872C31.3974 28.2968 33.2971 29.0883 35.2958 29.0883C37.3143 29.0883 39.214 28.3166 40.6388 26.8917C43.5874 23.963 43.6072 19.174 40.6586 16.2057C39.1943 14.7215 37.2549 13.9893 35.3156 13.9893H35.3354Z" fill="#EAD53F"/>
<path d="M35.2951 31.0099C32.7621 31.0099 30.3875 30.0204 28.6065 28.2196C26.8255 26.4188 25.836 24.0442 25.8558 21.5112C25.8558 18.9782 26.8452 16.6035 28.646 14.8225C32.3466 11.1417 38.3624 11.1615 42.0432 14.862C45.7239 18.5626 45.7042 24.5785 42.0036 28.2592C40.2028 30.0402 37.8281 31.0297 35.2951 31.0099ZM35.3545 12.8436C33.1183 12.8436 30.902 13.6747 29.2001 15.3766C27.5576 17.019 26.6474 19.1958 26.6276 21.5309C26.6276 23.8463 27.5181 26.0428 29.1606 27.6853C30.803 29.3278 32.9798 30.2381 35.3149 30.2579C37.6302 30.2579 39.8268 29.3674 41.4693 27.7249C44.873 24.341 44.8928 18.8198 41.5089 15.4161C39.807 13.7143 37.5906 12.8634 35.3545 12.8634V12.8436ZM35.3149 29.4663C33.1975 29.4663 31.1988 28.6352 29.7146 27.1312C28.2107 25.6273 27.3993 23.6286 27.3993 21.5112C27.3993 19.3937 28.2304 17.395 29.7344 15.9109C31.2384 14.4267 33.237 13.5955 35.3545 13.6153C37.4719 13.6153 39.4706 14.4465 40.9548 15.9504C44.0419 19.0573 44.0221 24.0837 40.9152 27.1708C39.4113 28.6748 37.4125 29.4861 35.2951 29.4861L35.3149 29.4663ZM35.3545 14.3673C33.4349 14.3673 31.6341 15.0995 30.2885 16.4452C28.923 17.7908 28.1909 19.5916 28.1711 21.5112C28.1711 23.4307 28.9033 25.2315 30.2489 26.5771C31.5946 27.9426 33.3954 28.6748 35.3149 28.6946C37.2344 28.6946 39.0352 27.9624 40.3809 26.6167C43.1909 23.8265 43.191 19.275 40.4007 16.4847C39.0551 15.1391 37.2543 14.3871 35.3347 14.3673H35.3545Z" fill="#EAD53F"/>
<path d="M54.1139 17.8968C53.916 17.8968 53.7181 17.8177 53.5796 17.6792L39.2721 3.29254C39.094 3.11443 39.0148 2.83739 39.0742 2.58013C39.1335 2.32287 39.3116 2.12498 39.5689 2.02604C44.6151 0.225237 49.9384 -0.130966 53.7972 1.11574C54.7669 1.41258 55.5387 2.18435 55.8553 3.19359C57.0624 7.05245 56.6864 12.3559 54.8658 17.4021C54.7669 17.6396 54.569 17.8375 54.3118 17.8968C54.2524 17.8968 54.193 17.8968 54.1534 17.8968H54.1139ZM41.2114 3.07486L53.7775 15.7003C55.796 9.28861 54.7471 4.87566 54.3513 3.62895C54.193 3.11443 53.7972 2.71865 53.3025 2.56034C52.036 2.16456 47.6231 1.07616 41.2114 3.07486Z" fill="#EAD53F"/>
<path d="M54.1142 18.2941C53.8174 18.2941 53.5205 18.1754 53.3028 17.9577L38.9954 3.57107C38.7184 3.29403 38.5996 2.89825 38.6985 2.50247C38.7777 2.12648 39.0548 1.80985 39.4308 1.67133C44.5561 -0.169053 49.9585 -0.505467 53.8965 0.741242C54.9849 1.07766 55.8556 1.94837 56.2118 3.05656C57.4387 6.99458 57.0627 12.397 55.2224 17.5223C55.0838 17.8983 54.7673 18.1754 54.3913 18.2545C54.3121 18.2545 54.2329 18.2743 54.134 18.2743L54.1142 18.2941ZM48.6524 0.761032C45.8226 0.761032 42.6959 1.29533 39.6682 2.38373C39.5495 2.42331 39.4506 2.52226 39.4308 2.66078C39.3912 2.7993 39.4307 2.91804 39.5297 3.01698L53.8372 17.4036C53.8372 17.4036 54.0746 17.5421 54.1934 17.5026C54.3319 17.4828 54.4308 17.3838 54.4704 17.2651C56.2712 12.298 56.6472 7.07373 55.4598 3.29403C55.1828 2.42331 54.5099 1.73069 53.659 1.47344C52.1748 0.998499 50.473 0.761032 48.6524 0.761032ZM53.9559 16.4339L40.4993 2.89825L41.1128 2.70036C47.6432 0.662086 52.1947 1.79006 53.4414 2.18584C54.0746 2.38373 54.5496 2.85867 54.7475 3.49192C55.1432 4.71884 56.2316 9.27032 54.1736 15.8007L53.9757 16.4142L53.9559 16.4339ZM41.9439 3.27424L53.5997 14.9893C55.3411 8.99327 54.3517 4.89694 53.9955 3.74918C53.8767 3.3534 53.5799 3.05656 53.2039 2.93783C52.0561 2.56183 47.94 1.55259 41.9439 3.27424Z" fill="#EAD53F"/>
</g>
</svg>
