<svg width="70" height="64" viewBox="0 0 70 64" fill="none" xmlns="http://www.w3.org/2000/svg">
<g opacity="0.5">
<path d="M26.7863 46.2772C26.4695 46.2772 26.1948 46.1082 26.047 45.8125L18.4848 30.2657C18.3369 29.9488 18.4003 29.5686 18.6538 29.3151L39.228 9.60704C39.4181 9.41693 39.6715 9.33243 39.9461 9.39581C40.1996 9.43805 40.432 9.60704 40.5376 9.83939L55.7042 41.0808C55.8098 41.3132 55.8098 41.5878 55.7042 41.8201C55.5774 42.0525 55.3451 42.2004 55.0916 42.2426L26.8919 46.2561C26.8919 46.2561 26.8074 46.2561 26.7652 46.2561L26.7863 46.2772ZM20.238 30.0967L27.2721 44.5662L53.7608 40.8062L39.5659 11.5926L20.238 30.0967Z" fill="white"/>
<path d="M26.787 46.6787C26.3223 46.6787 25.8787 46.4041 25.6886 45.9816L18.1264 30.4348C17.8941 29.949 17.9997 29.3787 18.3799 29.0196L38.954 9.31148C39.2498 9.03688 39.63 8.91014 40.0313 8.99463C40.4115 9.058 40.7495 9.31148 40.9185 9.67058L56.0851 40.912C56.2541 41.2711 56.2541 41.6724 56.0851 42.0315C55.895 42.3695 55.557 42.623 55.1768 42.6652L26.9771 46.6787C26.9771 46.6787 26.8715 46.6787 26.8081 46.6787H26.787ZM39.8201 9.79732C39.8201 9.79732 39.63 9.83956 39.5455 9.90293L18.9713 29.611C18.8446 29.7378 18.8024 29.9279 18.8869 30.0757L26.449 45.6225C26.5124 45.7704 26.6603 45.8549 26.8081 45.8549H26.8504L55.0712 41.8414C55.1979 41.8414 55.3246 41.7358 55.388 41.6302C55.4514 41.5246 55.4514 41.3767 55.388 41.25L40.2215 10.0086C40.1581 9.88181 40.0525 9.81844 39.9257 9.77619C39.9046 9.77619 39.8835 9.77619 39.8412 9.77619L39.8201 9.79732ZM27.0405 44.9888L19.7529 29.9912L19.9641 29.78L39.7145 10.8746L54.3952 41.1021L27.0405 44.9888ZM20.7457 30.1602L27.5052 44.0805L53.1489 40.4473L39.4399 12.2476L20.7246 30.1602H20.7457Z" fill="white"/>
<path d="M9.4444 54.0915C7.16308 54.0915 4.98738 52.8241 3.93121 50.6273L1.03732 44.6494C0.319128 43.1707 0.213501 41.502 0.762708 39.96C1.29079 38.418 2.41032 37.1717 3.88895 36.4535L6.86735 34.996C7.2687 34.8059 7.75454 34.9749 7.96578 35.3762L15.5068 50.923C15.6969 51.3243 15.5279 51.8102 15.1266 52.0214L12.1482 53.4789C11.2821 53.9014 10.3738 54.0915 9.46552 54.0915H9.4444ZM6.8251 36.8548L4.58603 37.9533C3.50874 38.4813 2.68492 39.3896 2.3047 40.5303C1.90336 41.671 1.98787 42.8961 2.51595 43.9734L5.40984 49.9513C6.48713 52.1904 9.19093 53.1198 11.43 52.0425L13.6691 50.9441L6.8251 36.876V36.8548Z" fill="white"/>
<path d="M9.44556 54.5184C6.91076 54.5184 4.6717 53.1032 3.55216 50.843L0.65824 44.8651C-0.1022 43.3019 -0.207816 41.5065 0.362515 39.8588C0.932845 38.2112 2.11576 36.8804 3.70001 36.12L6.67841 34.6625C7.29098 34.3668 8.0303 34.6202 8.32603 35.2328L15.8671 50.7796C16.1628 51.3922 15.9093 52.1315 15.2967 52.4272L12.3183 53.8847C11.41 54.3283 10.4595 54.5396 9.44556 54.5396V54.5184ZM7.20649 35.3596C7.20649 35.3596 7.07975 35.3596 7.0375 35.4018L4.0591 36.8593C2.68608 37.5353 1.65106 38.697 1.1441 40.1334C0.63714 41.5698 0.742746 43.1329 1.39757 44.506L4.29146 50.4839C5.26313 52.4695 7.22761 53.6946 9.44556 53.7157C10.3116 53.7157 11.1566 53.5256 11.9592 53.1454L14.9376 51.6879C15.1489 51.5823 15.2334 51.3499 15.1277 51.1387L7.5867 35.5919C7.52333 35.444 7.37547 35.3596 7.2276 35.3596H7.20649ZM9.44556 52.8919C8.91748 52.8919 8.36828 52.8074 7.8402 52.6173C6.59392 52.1949 5.60112 51.3077 5.03079 50.1248L2.1369 44.1469C1.56657 42.964 1.48208 41.6332 1.90454 40.3869C2.32701 39.1406 3.21417 38.1478 4.39708 37.5775L7.01639 36.3101L14.1983 51.1176L11.579 52.385C10.9031 52.7229 10.1638 52.8919 9.42445 52.8708L9.44556 52.8919ZM6.63615 37.4085L4.75617 38.3168C3.76338 38.8027 3.04519 39.6265 2.6861 40.6615C2.327 41.6966 2.39036 42.795 2.8762 43.7878L5.77009 49.7657C6.25592 50.7374 7.07974 51.4767 8.11478 51.8358C9.14982 52.1949 10.2694 52.1315 11.2411 51.6457L13.121 50.7374L6.63615 37.4085Z" fill="white"/>
<path d="M14.747 52.1016C14.747 52.1016 14.5781 52.1016 14.4725 52.0593C14.2612 51.996 14.0922 51.8481 14.0077 51.6369L6.46669 36.0901C6.27658 35.6888 6.44558 35.2029 6.84692 34.9917L18.8872 29.1405C19.2886 28.9504 19.7744 29.1194 19.9856 29.5207L27.5478 45.0675C27.6534 45.2576 27.6534 45.49 27.59 45.7012C27.5267 45.9125 27.3788 46.0814 27.1676 46.1659L15.1273 52.0171C15.0217 52.0805 14.8949 52.1016 14.7682 52.1016H14.747ZM8.30444 36.1112L15.1484 50.1794L25.7101 45.0464L18.8661 30.9783L8.30444 36.1112Z" fill="white"/>
<path d="M14.7472 52.5205C14.6205 52.5205 14.4727 52.4993 14.3459 52.4571C14.0291 52.3515 13.7967 52.1191 13.6488 51.8234L6.1078 36.2766C5.81207 35.664 6.06556 34.9247 6.67814 34.629L18.7184 28.7778C19.0142 28.63 19.331 28.6088 19.6479 28.7144C19.9647 28.8201 20.2182 29.0524 20.3661 29.3482L27.9282 44.8949C28.0761 45.1907 28.0972 45.5286 27.9916 45.8244C27.886 46.1412 27.6536 46.3947 27.3579 46.5214L15.3176 52.3726C15.1486 52.4571 14.9585 52.4993 14.7684 52.4993L14.7472 52.5205ZM19.2254 29.496C19.2254 29.496 19.0987 29.496 19.0564 29.5383L7.01612 35.3894C6.80489 35.495 6.72037 35.7274 6.82598 35.9386L14.367 51.4854C14.367 51.4854 14.4938 51.6544 14.5994 51.6967C14.705 51.7389 14.8106 51.7178 14.9162 51.6967L26.9566 45.8455C26.9566 45.8455 27.1255 45.7187 27.1678 45.6131C27.21 45.5075 27.1889 45.4019 27.1678 45.2963L19.6056 29.7495C19.6056 29.7495 19.4789 29.5805 19.3733 29.5383C19.331 29.5383 19.2888 29.5171 19.2465 29.5171L19.2254 29.496ZM14.9374 50.7461L7.75542 35.9386L19.0564 30.4466L26.2595 45.254L14.9585 50.7461H14.9374ZM8.83273 36.3189L15.3176 49.6477L25.14 44.8738L18.6551 31.545L8.83273 36.3189Z" fill="white"/>
<path d="M23.5971 63.4153C23.3013 63.4153 23.0056 63.2463 22.8578 62.9506L16.732 50.34C16.6263 50.1499 16.6264 49.9175 16.6897 49.7063C16.7531 49.495 16.901 49.3261 17.1122 49.2416L23.7027 46.0308C23.8928 45.9252 24.1252 45.9252 24.3364 45.9886C24.5476 46.0519 24.7166 46.1998 24.8011 46.411L30.9269 59.0217C31.117 59.423 30.948 59.9088 30.5467 60.1201L23.9561 63.3308C23.8505 63.3942 23.7238 63.4153 23.5971 63.4153ZM18.5697 50.3611L23.9773 61.4931L29.0891 59.0005L23.6816 47.8685L18.5486 50.3611H18.5697Z" fill="white"/>
<path d="M23.5977 63.8134C23.133 63.8134 22.7105 63.5388 22.4993 63.1163L16.3735 50.5057C16.2257 50.21 16.2045 49.872 16.3102 49.5763C16.4158 49.2594 16.6481 49.0271 16.9227 48.8792L23.5132 45.6684C23.8089 45.5206 24.1469 45.4995 24.4427 45.6051C24.7595 45.7107 24.9919 45.943 25.1397 46.2388L31.2655 58.8494C31.5612 59.462 31.3077 60.2013 30.6951 60.497L24.1047 63.7078C23.9357 63.7923 23.7456 63.8345 23.5555 63.8345L23.5977 63.8134ZM24.0624 46.3655C24.0624 46.3655 23.9357 46.3655 23.8723 46.4078L17.2818 49.6185C17.2818 49.6185 17.1128 49.7452 17.0706 49.8509C17.0283 49.9565 17.0495 50.0621 17.0706 50.1677L23.1964 62.7784C23.302 62.9685 23.5555 63.053 23.7456 62.9685L30.3361 59.7577C30.5473 59.6521 30.6318 59.4197 30.5262 59.2085L24.4004 46.5979C24.4004 46.5979 24.2737 46.4289 24.168 46.3866C24.1258 46.3866 24.0836 46.3655 24.0413 46.3655H24.0624ZM23.7878 62.039L18.0211 50.1677L23.8723 47.3161L29.639 59.1874L23.7878 62.039ZM19.1196 50.5479L24.168 60.9406L28.5617 58.8072L23.5132 48.4145L19.1196 50.5479Z" fill="white"/>
<path d="M55.0302 24.8681C54.7345 24.8681 54.4388 24.6991 54.2909 24.4034C54.1008 24.002 54.2698 23.5162 54.6711 23.3049L59.783 20.8124C60.1843 20.6223 60.6702 20.7913 60.8814 21.1926C61.0715 21.594 60.9025 22.0798 60.5012 22.291L55.3893 24.7836C55.2837 24.847 55.157 24.8681 55.0302 24.8681Z" fill="white"/>
<path d="M55.0304 25.2674C54.5657 25.2674 54.1433 24.9928 53.932 24.5703C53.6363 23.9578 53.8898 23.2184 54.5024 22.9227L59.6142 20.4302C59.9099 20.2823 60.2268 20.2612 60.5436 20.3668C60.8605 20.4724 61.114 20.7048 61.2618 21.0005C61.5575 21.6131 61.3041 22.3524 60.6915 22.6481L55.5796 25.1407C55.4106 25.2252 55.2205 25.2674 55.0304 25.2674ZM60.1423 21.1484C60.1423 21.1484 60.0155 21.1484 59.9733 21.1906L54.8614 23.6832C54.6502 23.7888 54.5657 24.0211 54.6713 24.2324C54.777 24.4225 55.0304 24.507 55.2205 24.4225L60.3324 21.9299C60.5436 21.8243 60.6281 21.5919 60.5225 21.3807C60.4803 21.2751 60.3958 21.2117 60.2902 21.1695C60.2479 21.1695 60.2056 21.1484 60.1634 21.1484H60.1423Z" fill="white"/>
<path d="M46.7063 6.88259C46.5584 6.88259 46.4105 6.84034 46.2838 6.75585C45.9036 6.52349 45.7768 6.01653 46.0092 5.63631L48.9453 0.777943C49.1777 0.397723 49.6847 0.270983 50.0649 0.503339C50.4451 0.735696 50.5718 1.24266 50.3395 1.62288L47.4033 6.48125C47.2555 6.73473 46.9809 6.88259 46.7063 6.88259Z" fill="white"/>
<path d="M46.7069 7.30712C46.4746 7.30712 46.2633 7.24375 46.0732 7.13814C45.4818 6.77904 45.3128 6.0186 45.6508 5.44827L48.5869 0.589898C48.946 0.0195673 49.6853 -0.170543 50.2768 0.167431C50.8682 0.526528 51.0372 1.28697 50.6992 1.8573L47.7631 6.71567C47.5519 7.07477 47.1294 7.30712 46.7069 7.30712ZM49.6642 0.801131C49.5164 0.801131 49.3896 0.864501 49.3051 0.991241L46.369 5.84961C46.2633 6.03972 46.3056 6.2932 46.5168 6.41994C46.7069 6.52556 46.9604 6.46219 47.0872 6.27208L50.0233 1.41371C50.1289 1.2236 50.0867 0.970118 49.8754 0.843378C49.8121 0.801131 49.7276 0.780008 49.6642 0.780008V0.801131Z" fill="white"/>
<path d="M68.0202 41.1125C68.0202 41.1125 67.9569 41.1125 67.9147 41.1125L62.2747 40.4154C61.8311 40.3521 61.5143 39.9507 61.5565 39.5071C61.6199 39.0635 62.0424 38.7467 62.4648 38.7889L68.1048 39.486C68.5484 39.5494 68.8652 39.9507 68.8229 40.3943C68.7807 40.8168 68.4216 41.1125 68.0202 41.1125Z" fill="white"/>
<path d="M68.0202 41.5085H67.8723L62.2324 40.8114C61.9156 40.7692 61.6198 40.6002 61.4086 40.3467C61.1974 40.0932 61.1128 39.7764 61.1551 39.4384C61.2396 38.7625 61.8522 38.2766 62.5281 38.3611L68.1681 39.0582C68.4849 39.1004 68.7806 39.2694 68.9918 39.5229C69.2031 39.7764 69.2876 40.0932 69.2454 40.4312C69.1609 41.0438 68.6539 41.5085 68.0202 41.5085ZM62.3802 39.1849C62.1901 39.1849 62 39.3328 61.9578 39.544C61.9578 39.6496 61.9578 39.7552 62.0423 39.8397C62.1057 39.9242 62.2113 39.9876 62.3169 39.9876L67.9991 40.6847C68.2103 40.6847 68.3793 40.5368 68.4004 40.3256C68.4004 40.22 68.4004 40.1143 68.3159 40.0299C68.2525 39.9454 68.1469 39.882 68.0413 39.882L62.4014 39.1849C62.4014 39.1849 62.3803 39.1849 62.3591 39.1849H62.3802Z" fill="white"/>
</g>
</svg>
