<svg width="79" height="82" viewBox="0 0 79 82" fill="none" xmlns="http://www.w3.org/2000/svg">
<g opacity="0.5">
<path d="M26.3824 69.0089L21.4104 66.1383C19.7266 65.146 19.154 62.9617 20.1313 61.2691C20.3145 60.9517 20.7284 60.828 21.0609 61.02L31.0025 66.8C31.3198 66.9833 31.4436 67.3972 31.2516 67.7297C30.2744 69.4223 28.0901 69.9948 26.3975 69.0176L26.3824 69.0089ZM21.0453 62.5826C20.8421 63.493 21.2534 64.4558 22.0997 64.9444L27.0717 67.815C27.9092 68.3187 28.9487 68.1935 29.6355 67.5623L21.054 62.5675L21.0453 62.5826Z" fill="#EAD53F"/>
<path d="M26.2189 69.292L21.247 66.4214C19.3969 65.3331 18.7581 62.9493 19.8465 61.0992C20.1257 60.6156 20.7454 60.4496 21.229 60.7288L31.1706 66.5088C31.6542 66.788 31.8203 67.4078 31.5411 67.8914C30.4679 69.7502 28.069 70.3803 26.2189 69.292ZM20.8975 61.303C20.7312 61.2071 20.5318 61.2733 20.4445 61.4244C19.5546 62.9658 20.0783 64.9205 21.6111 65.8256L26.583 68.6962C28.1158 69.6012 30.0704 69.0775 30.9755 67.5448C31.0715 67.3785 31.0053 67.1791 30.8542 67.0918L20.9126 61.3118L20.8975 61.303ZM26.9146 68.1219L21.9426 65.2513C20.9993 64.6865 20.5107 63.5783 20.7471 62.5058L20.8443 62.0582L30.2267 67.5154L29.8877 67.8235C29.062 68.5557 27.8818 68.6803 26.9146 68.1219ZM21.3654 63.1449C21.3908 63.7641 21.7237 64.3391 22.2829 64.6619L27.2549 67.5325C27.814 67.8553 28.4698 67.8713 29.01 67.5988L21.3329 63.1664L21.3654 63.1449Z" fill="#EAD53F"/>
<path d="M31.2421 59.8242C30.9247 59.641 30.801 59.227 30.993 58.8945L38.2389 46.414C38.3087 46.2931 38.4087 46.1897 38.5366 46.1427L47.5594 41.9621L34.414 34.3323L35.2421 44.2406C35.2566 44.39 35.2258 44.5132 35.156 44.6341L27.9101 57.1146C27.7268 57.4319 27.3129 57.5557 26.9804 57.3637C26.6479 57.1717 26.5393 56.7665 26.7313 56.434L33.8725 44.1349L32.9453 33.1418C32.9291 32.8907 33.0448 32.6553 33.2489 32.5112C33.4682 32.3758 33.7344 32.3683 33.946 32.4905L49.3344 41.4354C49.546 41.5576 49.6878 41.8006 49.665 42.0494C49.6574 42.307 49.5114 42.5249 49.2707 42.6278L39.2589 47.2649L32.1177 59.564C31.9345 59.8814 31.5205 60.0051 31.188 59.8131L31.2421 59.8242Z" fill="#EAD53F"/>
<path d="M31.0678 60.1267C30.5842 59.8475 30.4181 59.2277 30.6973 58.7441L37.9432 46.2636C38.0479 46.0823 38.213 45.9358 38.3974 45.8609L46.8259 41.9418L34.7988 34.9577L35.5714 44.2293C35.5899 44.4415 35.5393 44.6339 35.4346 44.8153L28.1886 57.2957C27.9094 57.7793 27.2897 57.9454 26.8061 57.6662C26.3225 57.387 26.1564 56.7672 26.4356 56.2836L33.5245 44.0752L32.6141 33.1926C32.5898 32.8158 32.7602 32.4508 33.0771 32.2509C33.394 32.051 33.801 32.0442 34.1335 32.2361L49.5219 41.1811C49.8543 41.373 50.0519 41.7289 50.0285 42.1184C50.0139 42.4928 49.783 42.8229 49.4445 42.9902L39.5368 47.5867L32.448 59.7952C32.1688 60.2788 31.549 60.4448 31.0654 60.1656L31.0678 60.1267ZM34.0295 33.7075L48.2845 41.9981L38.6739 46.4638C38.6739 46.4638 38.5523 46.5347 38.5174 46.5952L31.2716 59.0756C31.1756 59.2419 31.2418 59.4413 31.3929 59.5286C31.5441 59.6158 31.7586 59.5583 31.8458 59.4072L39.0394 47.0174L49.1401 42.3309C49.2529 42.2751 49.3378 42.1629 49.3297 42.0374C49.3367 41.9205 49.2659 41.799 49.1688 41.7228L33.7804 32.7778C33.6746 32.7168 33.5339 32.7162 33.4362 32.7806C33.3386 32.8451 33.2687 32.966 33.2768 33.0916L34.2058 44.1864L27.0122 56.5762C26.9163 56.7425 26.9824 56.9419 27.1336 57.0291C27.2998 57.1251 27.4992 57.0589 27.5865 56.9078L34.8324 44.4273C34.8324 44.4273 34.8871 44.2977 34.883 44.2349L33.9929 33.6662L34.0295 33.7075Z" fill="#EAD53F"/>
<path d="M37.5543 44.0743C37.4334 44.0045 37.3235 43.8806 37.2614 43.744L33.0069 33.3486C32.8977 33.0841 32.9792 32.7684 33.1856 32.5853C33.4008 32.3872 33.7148 32.3669 33.9717 32.5153L49.3601 41.4602C49.617 41.6085 49.7326 41.8969 49.6924 42.176C49.6283 42.4614 49.4045 42.6747 49.1208 42.7124L37.9868 44.1628C37.8374 44.1773 37.6903 44.1528 37.5543 44.0743ZM35.0226 34.6736L38.3221 42.7444L46.9742 41.6141L35.0226 34.6736Z" fill="#EAD53F"/>
<path d="M37.3824 44.3742C37.1859 44.2608 37.0394 44.0957 36.9581 43.8875L32.7036 33.4922C32.5323 33.091 32.6382 32.6282 32.9836 32.3441C33.3139 32.0512 33.7773 32.0164 34.1551 32.2346L49.5435 41.1795C49.9213 41.3977 50.1142 41.8314 50.0257 42.2639C49.9372 42.6964 49.5894 43.0195 49.1563 43.0717L38.0224 44.5221C37.8014 44.5557 37.5701 44.5028 37.3736 44.3894L37.3824 44.3742ZM33.7997 32.8152C33.6788 32.7454 33.5142 32.7512 33.4142 32.8546C33.2991 32.9494 33.2659 33.1115 33.3129 33.2395L37.5675 43.6348C37.6296 43.7715 37.7807 43.8587 37.9301 43.8442L49.0641 42.3938C49.2135 42.3793 49.3222 42.2608 49.3618 42.1224C49.3863 41.9753 49.3241 41.8387 49.2032 41.7689L33.8148 32.8239L33.7997 32.8152ZM38.0978 43.135L34.3208 33.9019L47.9951 41.8371L38.0978 43.135ZM35.7033 35.486L38.5253 42.3945L45.9321 41.4318L35.7033 35.486Z" fill="#EAD53F"/>
<path d="M34.4926 61.7338L23.7199 55.4739C23.4025 55.2906 23.2788 54.8767 23.4708 54.5442L26.0185 50.1314C21.6608 44.4519 21.3516 35.1455 25.3517 28.2869C30.4774 19.4787 41.7979 16.4837 50.5997 21.5856C59.4078 26.7113 62.4028 38.0318 57.3009 46.8335C53.3072 53.716 45.0651 58.045 37.97 57.0719L35.4223 61.4847C35.2391 61.8021 34.81 61.9171 34.4775 61.7251L34.4926 61.7338ZM24.9811 54.6505L34.5751 60.2299L37.0181 55.9984C37.1577 55.7566 37.4549 55.6259 37.7252 55.6813C44.3952 56.8321 52.3029 52.7332 56.1135 46.1681C60.8489 38.001 58.0623 27.5062 49.9191 22.7644C41.752 18.029 31.2572 20.8155 26.5154 28.9587C22.7048 35.5239 23.07 44.4192 27.3691 49.6417C27.5435 49.8633 27.5724 50.1621 27.4328 50.4039L24.9985 54.6203L24.9811 54.6505Z" fill="#EAD53F"/>
<path d="M34.3289 62.0168L23.5562 55.7569C23.0726 55.4777 22.9065 54.8579 23.1857 54.3743L25.62 50.158C21.2652 44.2989 21.0292 35.0751 25.0666 28.117C30.2796 19.1577 41.8082 16.0814 50.7826 21.3031C59.7419 26.516 62.8182 38.0446 57.5965 47.019C53.5591 53.9771 45.4252 58.3282 38.1522 57.4539L35.7179 61.6702C35.4387 62.1538 34.8038 62.3111 34.3202 62.0319L34.3289 62.0168ZM50.451 21.8773C41.8091 16.8476 30.6945 19.8002 25.6648 28.4422C21.7844 35.1282 22.0506 44.3695 26.3224 49.9187L26.4601 50.0989L23.7989 54.7082C23.703 54.8744 23.7541 55.0651 23.9203 55.1611L34.693 61.4211C34.8593 61.517 35.0587 61.4508 35.1459 61.2997L37.8071 56.6904L38.0472 56.7283C44.9801 57.6683 53.1355 53.3497 57.0397 46.6573C62.0694 38.0153 59.1168 26.9007 50.4597 21.8622L50.451 21.8773ZM34.7224 60.6723L24.539 54.7526L27.1478 50.234C27.2176 50.1131 27.2182 49.9724 27.1235 49.8573C22.7447 44.5284 22.3587 35.4598 26.239 28.7737C31.0704 20.4404 41.7711 17.6115 50.1044 22.4429C58.4377 27.2743 61.2666 37.9749 56.4352 46.3082C52.5548 52.9943 44.4954 57.1466 37.6934 55.98C37.5463 55.9555 37.4097 56.0177 37.3399 56.1386L34.7311 60.6572L34.7224 60.6723ZM25.4599 54.5186L34.4796 59.7665L36.7482 55.8373C36.9576 55.4746 37.3913 55.2817 37.8087 55.3615C44.3555 56.4815 52.1091 52.475 55.8586 46.0156C60.498 38.0148 57.7777 27.7194 49.7769 23.0799C41.776 18.4405 31.4806 21.1609 26.8412 29.1617C23.1005 35.6059 23.4447 44.3281 27.6556 49.4593C27.9246 49.7959 27.9593 50.2593 27.7499 50.622L25.4814 54.5512L25.4599 54.5186Z" fill="#EAD53F"/>
<path d="M31.8303 68.8589L18.8512 61.3251C17.8538 60.7492 17.524 59.4707 18.0911 58.4884L18.5797 57.6421C19.1556 56.6447 20.4341 56.3149 21.4164 56.882L34.3955 64.4158C35.3929 64.9917 35.7227 66.2702 35.1556 67.2525L34.667 68.0988C34.0911 69.0962 32.8126 69.426 31.8303 68.8589ZM20.7596 58.0544C20.4121 57.8537 19.983 57.9687 19.7823 58.3163L19.2937 59.1626C19.093 59.5102 19.208 59.9392 19.5556 60.1399L32.5347 67.6737C32.8823 67.8744 33.3114 67.7594 33.5121 67.4119L34.0007 66.5656C34.2014 66.218 34.0864 65.7889 33.7388 65.5882L20.7596 58.0544Z" fill="#EAD53F"/>
<path d="M31.6639 69.1492L18.6848 61.6154C17.5362 60.9523 17.1402 59.4744 17.8121 58.3107L18.3007 57.4644C18.9638 56.3159 20.4568 55.9286 21.6053 56.5917L34.5845 64.1255C35.733 64.7886 36.1291 66.2665 35.4572 67.4302L34.9686 68.2765C34.3055 69.425 32.8125 69.8123 31.6639 69.1492ZM21.2651 57.1811C20.4339 56.7012 19.3699 56.9735 18.89 57.8047L18.4014 58.651C17.9215 59.4821 18.1939 60.5461 19.0251 61.026L32.0042 68.5598C32.8354 69.0397 33.8993 68.7674 34.3792 67.9362L34.8678 67.0899C35.3477 66.2587 35.0754 65.1948 34.2442 64.7149L21.2651 57.1811ZM32.3358 67.9855L19.3566 60.4517C18.8579 60.1638 18.6703 59.5115 18.967 58.9976L19.4556 58.1513C19.7435 57.6526 20.411 57.4738 20.9097 57.7617L33.8888 65.2955C34.3875 65.5835 34.5751 66.2358 34.2785 66.7496L33.7899 67.5959C33.5019 68.0946 32.8345 68.2735 32.3358 67.9855ZM20.5845 58.3598C20.4031 58.2551 20.1648 58.319 20.0601 58.5003L19.5715 59.3466C19.4668 59.528 19.5306 59.7664 19.712 59.8711L32.6912 67.4049C32.8725 67.5096 33.1109 67.4457 33.2156 67.2644L33.7042 66.4181C33.8089 66.2367 33.745 65.9984 33.5637 65.8937L20.5845 58.3598Z" fill="#EAD53F"/>
<path d="M33.7379 65.5861L20.7587 58.0523C19.7764 57.4851 19.4379 56.2217 20.0138 55.2243L20.4849 54.4083C21.0521 53.426 22.3306 53.0962 23.3129 53.6633L36.2921 61.1971C37.2744 61.7643 37.6129 63.0276 37.037 64.025L36.5659 64.8411C35.9987 65.8234 34.7202 66.1532 33.7379 65.5861ZM22.6172 54.8333C22.2696 54.6326 21.8405 54.7476 21.6398 55.0952L21.1687 55.9113C20.968 56.2588 21.083 56.6879 21.4306 56.8886L34.4098 64.4224C34.7573 64.6231 35.1864 64.5081 35.3871 64.1606L35.8583 63.3445C36.0589 62.9969 35.944 62.5678 35.5964 62.3672L22.6172 54.8333Z" fill="#EAD53F"/>
<path d="M33.5651 65.8851L20.586 58.3513C19.4374 57.6882 19.0414 56.2103 19.7045 55.0617L20.1757 54.2457C20.8388 53.0971 22.3167 52.7011 23.4652 53.3642L36.4444 60.8981C37.593 61.5612 37.989 63.0391 37.3259 64.1876L36.8547 65.0037C36.1916 66.1522 34.7137 66.5482 33.5651 65.8851ZM23.125 53.9536C22.2938 53.4737 21.245 53.7548 20.7651 54.586L20.2939 55.402C19.814 56.2332 20.0951 57.282 20.9262 57.7619L33.9054 65.2958C34.7366 65.7756 35.7854 65.4946 36.2653 64.6634L36.7365 63.8473C37.2164 63.0162 36.9353 61.9673 36.1041 61.4874L23.125 53.9536ZM34.2457 64.7064L21.2665 57.1725C20.7678 56.8846 20.5953 56.241 20.8833 55.7423L21.3544 54.9262C21.6424 54.4275 22.286 54.2551 22.7998 54.5517L35.779 62.0856C36.2777 62.3735 36.4502 63.0171 36.1622 63.5158L35.6911 64.3319C35.4032 64.8306 34.7595 65.003 34.2457 64.7064ZM22.4531 55.1173C22.2718 55.0126 22.0334 55.0764 21.9374 55.2427L21.4663 56.0587C21.3616 56.2401 21.4104 56.4698 21.5917 56.5745L34.5709 64.1083C34.7522 64.213 34.9906 64.1491 35.0866 63.9829L35.5577 63.1668C35.6624 62.9854 35.6137 62.7558 35.4323 62.6511L22.4531 55.1173Z" fill="#EAD53F"/>
<path d="M52.1062 19.0086C51.7889 18.8253 51.6652 18.4114 51.8571 18.0789L54.0297 14.3159C54.2129 13.9986 54.642 13.8836 54.9745 14.0756C55.2918 14.2588 55.4155 14.6728 55.2236 15.0052L53.051 18.7682C52.8678 19.0856 52.4387 19.2005 52.1062 19.0086Z" fill="#EAD53F"/>
<path d="M51.9427 19.2916C51.4591 19.0124 51.293 18.3926 51.5722 17.909L53.7448 14.146C54.024 13.6625 54.6589 13.5051 55.1425 13.7843C55.626 14.0635 55.7921 14.6833 55.5129 15.1669L53.3404 18.9299C53.0612 19.4135 52.4263 19.5708 51.9427 19.2916ZM54.7958 14.3498C54.6295 14.2539 54.4302 14.3201 54.3429 14.4712L52.1703 18.2342C52.0744 18.4004 52.1254 18.5911 52.2917 18.6871C52.4579 18.7831 52.6573 18.7169 52.7446 18.5657L54.9084 14.8179C55.0044 14.6516 54.9533 14.4609 54.787 14.365L54.7958 14.3498Z" fill="#EAD53F"/>
<path d="M41.0422 16.0087C40.8457 15.8953 40.7103 15.6761 40.6942 15.4249L40.7048 11.0787C40.7044 10.6956 41.0108 10.4091 41.3788 10.3999C41.762 10.3995 42.0485 10.7059 42.0576 11.0739L42.0469 15.4201C42.0474 15.8032 41.741 16.0897 41.373 16.0989C41.2474 16.107 41.1329 16.0611 41.0422 16.0087Z" fill="#EAD53F"/>
<path d="M40.8702 16.3084C40.5528 16.1252 40.3617 15.7932 40.3676 15.4339L40.3783 11.0877C40.3795 10.8063 40.4802 10.5622 40.6715 10.3704C40.8628 10.1786 41.1187 10.0845 41.3849 10.0771C41.6512 10.0696 41.9105 10.179 42.1022 10.3703C42.294 10.5616 42.4032 10.8262 42.3956 11.0837L42.3849 15.4299C42.3924 15.6962 42.283 15.9554 42.0917 16.1472C41.9003 16.339 41.6358 16.4482 41.3782 16.4405C41.1986 16.4376 41.0213 16.3957 40.8702 16.3084ZM41.5614 10.7834C41.5614 10.7834 41.4557 10.7224 41.3842 10.7416C41.2824 10.7433 41.2021 10.7775 41.1434 10.8444C41.0847 10.9112 41.0562 10.9955 41.0428 11.0885L41.0321 15.4347C41.0291 15.6143 41.1843 15.7643 41.379 15.776C41.4656 15.7656 41.561 15.7401 41.6198 15.6732C41.6785 15.6064 41.707 15.5221 41.7204 15.4291L41.7311 11.0829C41.7311 11.0829 41.6951 10.9009 41.6283 10.8422C41.5981 10.8248 41.5829 10.816 41.5527 10.7986L41.5614 10.7834Z" fill="#EAD53F"/>
<path d="M29.9809 18.9474C29.8751 18.8863 29.8019 18.8038 29.7374 18.7061L27.5788 14.9411C27.3877 14.6091 27.4977 14.2092 27.8297 14.018C28.1617 13.8269 28.5617 13.9369 28.7528 14.2689L30.9113 18.0338C31.1025 18.3658 30.9925 18.7658 30.6605 18.957C30.45 19.0772 30.1924 19.0696 29.9809 18.9474Z" fill="#EAD53F"/>
<path d="M29.8069 19.2467C29.6558 19.1594 29.5309 19.0269 29.4385 18.8728L27.28 15.1078C27.1534 14.8735 27.1069 14.6049 27.1773 14.3433C27.2478 14.0817 27.4176 13.8574 27.6519 13.7307C27.8862 13.6041 28.1548 13.5576 28.4164 13.6281C28.678 13.6985 28.9024 13.8683 29.029 14.1026L31.1875 17.8676C31.3142 18.1019 31.3606 18.3705 31.2902 18.6321C31.2198 18.8937 31.0499 19.118 30.8156 19.2447C30.5074 19.4295 30.1092 19.4212 29.8069 19.2467ZM28.329 14.303C28.329 14.303 28.2837 14.2768 28.2535 14.2594C28.1692 14.2309 28.0738 14.2564 27.9936 14.2907C27.9046 14.3401 27.861 14.4156 27.8325 14.4999C27.8039 14.5842 27.8295 14.6795 27.8638 14.7598L30.0223 18.5247C30.1147 18.6788 30.3222 18.7382 30.4763 18.6458C30.5652 18.5964 30.6089 18.5209 30.6374 18.4366C30.6659 18.3523 30.6404 18.2569 30.6061 18.1767L28.4475 14.4117C28.4475 14.4117 28.3831 14.3141 28.3226 14.2792L28.329 14.303Z" fill="#EAD53F"/>
<path d="M21.8514 27.0231L18.0884 24.8505C17.771 24.6673 17.6561 24.2383 17.8481 23.9058C18.04 23.5733 18.4452 23.4647 18.7777 23.6567L22.5406 25.8292C22.858 26.0124 22.973 26.4415 22.781 26.774C22.5978 27.0914 22.1838 27.215 21.8514 27.0231Z" fill="#EAD53F"/>
<path d="M21.6761 27.3256L17.9131 25.1531C17.4295 24.8739 17.2722 24.239 17.5514 23.7554C17.8306 23.2718 18.4504 23.1057 18.934 23.385L22.6969 25.5575C23.1805 25.8367 23.3379 26.4716 23.0587 26.9552C22.7795 27.4388 22.1597 27.6048 21.6761 27.3256ZM18.5937 23.9743C18.4275 23.8784 18.228 23.9446 18.1408 24.0957C18.0448 24.2619 18.111 24.4614 18.2621 24.5486L22.0251 26.7211C22.1913 26.8171 22.382 26.766 22.478 26.5998C22.574 26.4336 22.5078 26.2341 22.3566 26.1469L18.5937 23.9743Z" fill="#EAD53F"/>
<path d="M14.5002 38.0755C14.3038 37.9621 14.1684 37.7429 14.1522 37.4917C14.1517 37.1086 14.4582 36.8221 14.8262 36.8129L19.1724 36.8236C19.5404 36.8144 19.842 37.1296 19.8512 37.4976C19.8516 37.8807 19.5452 38.1672 19.1772 38.1764L14.831 38.1657C14.7142 38.1587 14.5909 38.1279 14.5002 38.0755Z" fill="#EAD53F"/>
<path d="M14.3282 38.3752C14.0109 38.192 13.8197 37.86 13.8257 37.5007C13.8269 37.2193 13.9276 36.9752 14.1189 36.7834C14.3102 36.5916 14.566 36.4975 14.8323 36.49L19.1785 36.5007C19.4447 36.4933 19.704 36.6026 19.8958 36.794C20.0876 36.9853 20.1968 37.2498 20.1891 37.5074C20.1966 37.7736 20.0872 38.0329 19.8959 38.2247C19.7046 38.4165 19.44 38.5257 19.1825 38.518L14.8363 38.5073C14.6567 38.5044 14.4794 38.4625 14.3282 38.3752ZM19.355 37.2071C19.355 37.2071 19.2492 37.1461 19.1777 37.1652L14.8315 37.1545C14.8315 37.1545 14.6495 37.1905 14.5908 37.2573C14.532 37.3242 14.5035 37.4085 14.4901 37.5015C14.4871 37.6811 14.6575 37.8399 14.822 37.8341L19.1682 37.8448C19.1682 37.8448 19.3501 37.8088 19.4089 37.742C19.4676 37.6752 19.4961 37.5909 19.5095 37.4979C19.5078 37.3961 19.4735 37.3159 19.4067 37.2571C19.3765 37.2397 19.3614 37.231 19.3311 37.2135L19.355 37.2071Z" fill="#EAD53F"/>
<path d="M60.1965 27.1231C60.0907 27.062 60.0175 26.9794 59.953 26.8817C59.7618 26.5497 59.8805 26.1346 60.2038 25.9586L63.9687 23.8001C64.3008 23.6089 64.7007 23.7189 64.8919 24.0509C65.083 24.3829 64.9643 24.798 64.641 24.9741L60.8761 27.1326C60.6656 27.2528 60.4081 27.2452 60.1965 27.1231Z" fill="#EAD53F"/>
<path d="M60.0238 27.4236C59.8727 27.3363 59.7477 27.2037 59.6553 27.0496C59.3718 26.5635 59.5499 25.941 60.0273 25.6725L63.7922 23.514C64.2783 23.2305 64.9008 23.4086 65.1844 23.8947C65.3111 24.129 65.3575 24.3976 65.287 24.6592C65.2166 24.9207 65.0468 25.1451 64.8125 25.2718L61.0475 27.4303C60.7393 27.615 60.3411 27.6068 60.0238 27.4236ZM64.4693 24.0863C64.3635 24.0252 64.2466 24.0182 64.1251 24.0891L60.3602 26.2476C60.3602 26.2476 60.2276 26.3725 60.1991 26.4568C60.1706 26.5411 60.1961 26.6365 60.2304 26.7167C60.3228 26.8708 60.5303 26.9301 60.6843 26.8378L64.4493 24.6792C64.4493 24.6792 64.5819 24.5543 64.6104 24.47C64.6389 24.3857 64.6134 24.2904 64.5791 24.2101C64.5512 24.1537 64.5146 24.1125 64.4542 24.0776L64.4693 24.0863Z" fill="#EAD53F"/>
<path d="M63.1428 38.2161C62.9464 38.1027 62.811 37.8835 62.7948 37.6323C62.7943 37.2492 63.1008 36.9627 63.4688 36.9535L67.815 36.9642C68.183 36.955 68.4846 37.2702 68.4938 37.6382C68.4942 38.0213 68.1878 38.3079 67.8198 38.317L63.4736 38.3063C63.348 38.3144 63.2335 38.2685 63.1428 38.2161Z" fill="#EAD53F"/>
<path d="M62.9712 38.5127C62.6538 38.3294 62.4627 37.9974 62.4686 37.6381C62.4711 37.0754 62.9276 36.6337 63.4903 36.6362L67.8365 36.6469C68.1028 36.6394 68.362 36.7488 68.5538 36.9402C68.7456 37.1315 68.8548 37.396 68.8623 37.6623C68.8697 37.9285 68.7604 38.1878 68.569 38.3796C68.3777 38.5714 68.1132 38.6806 67.8556 38.6729L63.5095 38.6622C63.3298 38.6593 63.1525 38.6173 63.0014 38.5301L62.9712 38.5127ZM67.9979 37.3446C67.9979 37.3446 67.8921 37.2835 67.8206 37.3027L63.4744 37.292C63.4744 37.292 63.2925 37.328 63.2337 37.3948C63.175 37.4616 63.1465 37.5459 63.1331 37.639C63.1301 37.8186 63.2853 37.9686 63.48 37.9803L67.8262 37.991C67.8262 37.991 68.0082 37.955 68.0669 37.8882C68.1257 37.8213 68.1542 37.7371 68.1676 37.6441C68.1659 37.5423 68.1316 37.4621 68.0647 37.4033C68.0345 37.3859 68.0194 37.3772 67.9892 37.3597L67.9979 37.3446Z" fill="#EAD53F"/>
<path d="M63.8924 51.4723L60.1294 49.2998C59.8121 49.1165 59.6971 48.6875 59.8891 48.355C60.0723 48.0376 60.4862 47.9139 60.8187 48.1059L64.5817 50.2785C64.8991 50.4617 65.014 50.8908 64.8221 51.2232C64.6388 51.5406 64.2249 51.6643 63.8924 51.4723Z" fill="#EAD53F"/>
<path d="M63.7289 51.7554L59.9659 49.5828C59.4823 49.3036 59.3249 48.6687 59.6041 48.1851C59.8834 47.7015 60.5031 47.5354 60.9867 47.8146L64.7497 49.9872C65.2333 50.2664 65.3906 50.9013 65.1114 51.3849C64.8322 51.8685 64.2125 52.0346 63.7289 51.7554ZM60.6464 48.404C60.4802 48.308 60.2808 48.3743 60.1935 48.5254C60.0975 48.6916 60.1637 48.891 60.3149 48.9783L64.0779 51.1509C64.2441 51.2468 64.4348 51.1957 64.5308 51.0295C64.6268 50.8633 64.5606 50.6638 64.4094 50.5766L60.6464 48.404Z" fill="#EAD53F"/>
<path d="M54.1879 61.1232C54.0821 61.0621 54.0089 60.9795 53.9444 60.8818L51.7859 57.1169C51.5947 56.7849 51.7047 56.385 52.0367 56.1938C52.3688 56.0027 52.7838 56.1214 52.9599 56.4447L55.1184 60.2096C55.3095 60.5416 55.1995 60.9415 54.8675 61.1327C54.657 61.253 54.3995 61.2453 54.1879 61.1232Z" fill="#EAD53F"/>
<path d="M54.014 61.4264C53.8628 61.3391 53.7379 61.2065 53.6455 61.0525L51.487 57.2875C51.3603 57.0532 51.3139 56.7846 51.3844 56.523C51.4548 56.2614 51.6246 56.0371 51.8589 55.9104C52.102 55.7686 52.3619 55.7373 52.6235 55.8078C52.885 55.8782 53.1094 56.048 53.236 56.2823L55.3946 60.0473C55.5212 60.2816 55.5676 60.5502 55.4972 60.8118C55.4268 61.0734 55.2569 61.2977 55.0226 61.4244C54.7144 61.6091 54.3162 61.6009 54.014 61.4264ZM52.536 56.4827C52.536 56.4827 52.4907 56.4565 52.4605 56.4391C52.3762 56.4105 52.2808 56.4361 52.2006 56.4703C52.1203 56.5046 52.068 56.5953 52.0395 56.6796C52.011 56.7639 52.0365 56.8592 52.0708 56.9395L54.2293 60.7044C54.3217 60.8585 54.5292 60.9179 54.6833 60.8255C54.7635 60.7912 54.8159 60.7005 54.8444 60.6162C54.8729 60.5319 54.8474 60.4366 54.8131 60.3564L52.6546 56.5914C52.6546 56.5914 52.5901 56.4937 52.5296 56.4588L52.536 56.4827Z" fill="#EAD53F"/>
</g>
</svg>
