<svg width="61" height="49" viewBox="0 0 61 49" fill="none" xmlns="http://www.w3.org/2000/svg">
<g opacity="0.6" clip-path="url(#clip0_62818_2383)">
<path d="M29.2762 16.1531C29.0894 16.1531 28.9025 16.0782 28.7718 15.947L25.3528 12.4992C25.0725 12.2181 25.0725 11.7497 25.3528 11.4686C25.633 11.1875 26.1001 11.1875 26.3803 11.4686L29.7993 14.9164C30.0796 15.1975 30.0796 15.6659 29.7993 15.947C29.6499 16.0969 29.463 16.1531 29.2949 16.1531H29.2762Z" fill="white"/>
<path d="M29.2768 16.5089C28.9779 16.5089 28.7163 16.3965 28.5108 16.1904L25.0918 12.7426C24.6621 12.3116 24.6621 11.6183 25.0918 11.206C25.5215 10.7751 26.2128 10.7751 26.6238 11.206L30.0428 14.6538C30.4725 15.0848 30.4725 15.7781 30.0428 16.1904C29.8373 16.3965 29.557 16.5089 29.2768 16.5089ZM25.8578 11.5995C25.8578 11.5995 25.671 11.637 25.5963 11.712C25.4468 11.8619 25.4468 12.0867 25.5963 12.2179L29.0152 15.6657C29.146 15.7969 29.3889 15.7969 29.5197 15.6657C29.6691 15.5158 29.6691 15.2909 29.5197 15.1598L26.1007 11.712C26.1007 11.712 25.9325 11.5995 25.8391 11.5995H25.8578Z" fill="white"/>
<path d="M40.7868 44.4644C40.0021 44.4644 39.1987 44.1646 38.6009 43.5462L33.6125 38.5057C33.3323 38.2246 33.3323 37.7561 33.6125 37.4751C33.8928 37.194 34.3598 37.194 34.6401 37.4751L39.6285 42.5156C40.2637 43.1527 41.3099 43.1527 41.9451 42.5156C42.2628 42.1971 42.4309 41.7848 42.4309 41.3538C42.4309 40.9229 42.2628 40.5106 41.9451 40.1921L36.9568 35.1516C36.6765 34.8705 36.6765 34.402 36.9568 34.121C37.237 33.8399 37.7041 33.8399 37.9844 34.121L42.9727 39.1615C43.5519 39.7424 43.8695 40.5294 43.8695 41.3538C43.8695 42.1783 43.5519 42.9653 42.954 43.5462C42.3562 44.1458 41.5528 44.4456 40.7681 44.4456L40.7868 44.4644Z" fill="white"/>
<path d="M40.7863 44.8217C39.8708 44.8217 38.9927 44.4657 38.3575 43.8099L33.3692 38.7693C32.9394 38.3384 32.9394 37.6451 33.3692 37.2328C33.7989 36.8018 34.4901 36.8018 34.9012 37.2328L39.8895 42.2734C40.3753 42.7605 41.216 42.7605 41.6831 42.2734C41.926 42.0298 42.0568 41.7112 42.0568 41.3739C42.0568 41.0366 41.926 40.7181 41.6831 40.4745L36.6947 35.434C36.265 35.003 36.265 34.3097 36.6947 33.8975C37.1244 33.4665 37.8157 33.4665 38.2267 33.8975L43.2151 38.938C43.869 39.5938 44.224 40.4558 44.224 41.3927C44.224 42.3108 43.869 43.1915 43.2151 43.8286C42.5612 44.4844 41.7018 44.8405 40.7676 44.8405L40.7863 44.8217ZM34.1352 37.6263C34.1352 37.6263 33.9483 37.6638 33.8736 37.7387C33.7241 37.8887 33.7241 38.1135 33.8736 38.2447L38.862 43.2852C39.8895 44.3158 41.6831 44.3158 42.7107 43.2852C43.2338 42.7793 43.514 42.086 43.514 41.3552C43.514 40.6244 43.2338 39.9311 42.7293 39.4252L37.741 34.3846C37.5915 34.2347 37.3673 34.2347 37.2365 34.3846C37.0871 34.5345 37.0871 34.7594 37.2365 34.8906L42.2249 39.9311C42.5986 40.3059 42.8041 40.8118 42.8041 41.3552C42.8041 41.8986 42.5986 42.4045 42.2062 42.7793C41.4589 43.5288 40.1324 43.5288 39.3851 42.7793L34.3967 37.7387C34.3967 37.7387 34.2286 37.6263 34.1352 37.6263Z" fill="white"/>
<path d="M37.443 47.8003C36.6584 47.8003 35.855 47.5005 35.2571 46.8821L30.2688 41.8416C29.9885 41.5605 29.9885 41.0921 30.2688 40.811C30.549 40.5299 31.0161 40.5299 31.2963 40.811L36.2847 45.8515C36.9199 46.4886 37.9662 46.4886 38.6014 45.8515C39.2366 45.2144 39.2366 44.1651 38.6014 43.528L33.613 38.4875C33.3328 38.2064 33.3328 37.738 33.613 37.4569C33.8933 37.1758 34.3604 37.1758 34.6406 37.4569L39.629 42.4974C40.8247 43.7154 40.8247 45.6642 39.629 46.8821C39.0311 47.4818 38.2277 47.7816 37.443 47.7816V47.8003Z" fill="white"/>
<path d="M37.4426 48.1764C36.5271 48.1764 35.649 47.8204 35.0138 47.1646L30.0254 42.124C29.5957 41.693 29.5957 40.9997 30.0254 40.5875C30.4551 40.1565 31.1464 40.1565 31.5574 40.5875L36.5458 45.628C37.0502 46.134 37.8536 46.134 38.3393 45.628C38.8438 45.1221 38.8438 44.3164 38.3393 43.8104L33.351 38.7699C32.9213 38.3389 32.9213 37.6456 33.351 37.2334C33.7807 36.8024 34.472 36.8024 34.883 37.2334L39.8713 42.2739C41.2165 43.6231 41.1978 45.8154 39.8713 47.1646C39.2174 47.8204 38.358 48.1764 37.4239 48.1764H37.4426ZM30.7914 40.981C30.7914 40.981 30.6046 41.0185 30.5298 41.0934C30.4551 41.1684 30.4178 41.2621 30.4178 41.3558C30.4178 41.4494 30.4551 41.5431 30.5298 41.6181L35.5182 46.6586C36.5458 47.6892 38.3393 47.6892 39.3669 46.6586C40.4318 45.5906 40.4318 43.8667 39.3669 42.7986L34.3785 37.7581C34.2291 37.6081 34.0049 37.6081 33.8741 37.7581C33.7246 37.908 33.7246 38.1328 33.8741 38.264L38.8625 43.3045C39.6285 44.0915 39.6285 45.3657 38.8625 46.134C38.0778 46.921 36.8073 46.9022 36.0413 46.134L31.053 41.0934C31.053 41.0934 30.8848 40.981 30.7914 40.981Z" fill="white"/>
<path d="M13.7697 31.6507C13.5829 31.6507 13.3961 31.5758 13.2653 31.4446L9.79026 27.9406C9.51002 27.6595 9.51002 27.1911 9.79026 26.91C10.0705 26.629 10.5376 26.629 10.8178 26.91L14.2929 30.414C14.5731 30.6951 14.5731 31.1636 14.2929 31.4446C14.1434 31.5945 13.9566 31.6507 13.7884 31.6507H13.7697Z" fill="white"/>
<path d="M13.7704 32.0065C13.4714 32.0065 13.2099 31.8941 13.0044 31.688L9.52931 28.184C9.0996 27.753 9.0996 27.0597 9.52931 26.6475C9.95902 26.2165 10.6503 26.2165 11.0613 26.6475L14.5364 30.1515C14.9661 30.5824 14.9661 31.2757 14.5364 31.688C14.3308 31.8941 14.0506 32.0065 13.7704 32.0065ZM10.2953 27.0409C10.2953 27.0409 10.1085 27.0784 10.0338 27.1534C9.88429 27.3033 9.88429 27.5281 10.0338 27.6593L13.5088 31.1633C13.6396 31.2945 13.8825 31.2945 14.0132 31.1633C14.1627 31.0134 14.1627 30.7886 14.0132 30.6574L10.5382 27.1534C10.5382 27.1534 10.37 27.0409 10.2766 27.0409H10.2953Z" fill="white"/>
<path d="M31.5766 48.6253C30.7732 48.6253 29.9699 48.2881 29.3907 47.7072L26.5696 44.859C26.2893 44.5779 26.2893 44.1095 26.5696 43.8284C26.8498 43.5473 27.3169 43.5473 27.5971 43.8284L30.4183 46.6766C31.0348 47.3137 32.1371 47.2949 32.7349 46.6766C33.0339 46.3768 33.202 45.9645 33.202 45.5148C33.202 45.0651 33.0339 44.6716 32.7349 44.3531L30.2314 41.8234C29.9512 41.5424 29.9512 41.0739 30.2314 40.7928C30.5117 40.5118 30.9787 40.5118 31.259 40.7928L33.7625 43.3225C34.9582 44.5217 34.9582 46.4892 33.7625 47.6884C33.1833 48.2693 32.3987 48.5879 31.5579 48.5879L31.5766 48.6253Z" fill="white"/>
<path d="M31.5761 49.0014C30.6793 49.0014 29.7825 48.6267 29.1473 47.9709L26.3262 45.1227C25.8965 44.6917 25.8965 43.9984 26.3262 43.5862C26.7559 43.1552 27.4472 43.1552 27.8582 43.5862L30.6793 46.4343C30.9035 46.6592 31.2398 46.7904 31.5761 46.7904C31.9311 46.7904 32.2487 46.6592 32.4729 46.4343C32.7158 46.1907 32.8466 45.8722 32.8466 45.5349C32.8466 45.1976 32.7158 44.8791 32.4916 44.6355L29.9881 42.1058C29.5583 41.6749 29.5583 40.9816 29.9881 40.5693C30.4178 40.1383 31.109 40.1383 31.5201 40.5693L34.0236 43.099C35.3688 44.4481 35.3501 46.6405 34.0236 47.9896C33.3697 48.6454 32.4916 49.0014 31.5761 49.0014ZM27.0922 43.9984C27.0922 43.9984 26.9054 44.0359 26.8306 44.1108C26.6812 44.2607 26.6812 44.4856 26.8306 44.6167L29.6518 47.4649C30.6793 48.4955 32.4916 48.4955 33.5191 47.4649C34.5841 46.3969 34.5841 44.673 33.5191 43.6049L31.0156 41.0753C30.8662 40.9253 30.642 40.9253 30.5112 41.0753C30.3617 41.2252 30.3617 41.45 30.5112 41.5812L33.0147 44.1108C33.3884 44.4856 33.5939 44.9915 33.5939 45.5349C33.5939 46.0783 33.3884 46.5842 33.0147 46.9403C32.6597 47.2963 32.1366 47.5024 31.5948 47.5024C31.053 47.5024 30.5485 47.2963 30.1749 46.9215L27.3538 44.0733C27.3538 44.0733 27.1856 43.9609 27.0922 43.9609V43.9984Z" fill="white"/>
<path d="M22.569 48.6072C21.7657 48.6072 20.9623 48.2699 20.3831 47.6891C19.8039 47.1082 19.4863 46.3212 19.4863 45.4967C19.4863 44.6722 19.8039 43.8852 20.3831 43.3044L23.7461 39.9502C24.9418 38.7885 26.9222 38.8072 28.0992 39.9502C29.3136 41.1682 29.3136 43.1357 28.0992 44.3349L24.7549 47.6703C24.1758 48.2512 23.3911 48.5697 22.569 48.5697V48.6072ZM25.932 40.5311C25.5023 40.5311 25.0912 40.6998 24.7736 40.9996L21.4294 44.3349C21.1304 44.6348 20.9623 45.047 20.9623 45.4967C20.9623 45.9464 21.1304 46.3399 21.4294 46.6585C22.0459 47.2956 23.1295 47.2768 23.7461 46.6585L27.0716 43.3231C27.7068 42.686 27.7255 41.6367 27.0716 40.9996C26.754 40.6998 26.343 40.5311 25.9133 40.5311H25.932Z" fill="white"/>
<path d="M22.5694 48.963C21.6726 48.963 20.7758 48.5882 20.1406 47.9324C19.4867 47.2766 19.1504 46.4146 19.1504 45.4777C19.1504 44.5596 19.5054 43.6789 20.1593 43.0418L23.5222 39.6877C24.8674 38.376 27.0533 38.3947 28.3798 39.6877C29.725 41.0555 29.725 43.2479 28.3798 44.597L25.0355 47.9324C24.3816 48.5882 23.5035 48.9443 22.5881 48.9443L22.5694 48.963ZM25.951 39.4628C25.241 39.4628 24.5498 39.7064 24.008 40.2311L20.6637 43.5664C20.1593 44.0724 19.8603 44.7657 19.8603 45.4965C19.8603 46.2273 20.1406 46.9206 20.645 47.4265C21.6726 48.4571 23.4848 48.4571 24.5124 47.4265L27.8567 44.0911C28.9216 43.023 28.9216 41.2804 27.8567 40.2123C27.3335 39.7064 26.6423 39.4628 25.951 39.4628ZM22.5881 47.4827C22.0649 47.4827 21.5418 47.2953 21.1682 46.9018C20.7945 46.5271 20.589 46.0211 20.589 45.4777C20.589 44.9343 20.7945 44.4471 21.1682 44.0724L24.5124 40.737C25.2971 39.9875 26.5862 39.9875 27.3335 40.737C27.7072 41.1305 27.9127 41.6364 27.9127 42.1611C27.9127 42.6858 27.7072 43.2104 27.3149 43.5852L23.9706 46.9206C23.5969 47.2953 23.0738 47.4827 22.5507 47.4827H22.5881ZM25.951 40.8869C25.6147 40.8869 25.2971 41.0181 25.0355 41.2617L21.6913 44.597C21.4484 44.8406 21.3176 45.1592 21.3176 45.4965C21.3176 45.8338 21.4484 46.1523 21.6726 46.3959C22.1397 46.8643 22.9991 46.8643 23.4848 46.3959L26.8104 43.0605C27.0533 42.8169 27.2028 42.4984 27.2028 42.1424C27.2028 41.8051 27.072 41.4678 26.8291 41.2242C26.5862 40.9993 26.2686 40.8682 25.9323 40.8494L25.951 40.8869Z" fill="white"/>
<path d="M19.2448 45.23C18.4228 45.23 17.6381 44.9115 17.0589 44.3306C15.8632 43.1126 15.8632 41.1452 17.0589 39.9459L22.7012 34.3245C23.8782 33.144 25.9146 33.1815 27.073 34.3245C28.2687 35.5425 28.25 37.51 27.073 38.6905L21.412 44.3306C20.8515 44.9115 20.0855 45.23 19.2261 45.23H19.2448ZM24.8871 34.8679C24.4574 34.8679 24.0463 35.0365 23.7287 35.3551L18.0865 40.9765C17.4512 41.6136 17.4512 42.6629 18.0865 43.3C18.703 43.9184 19.824 43.8996 20.3845 43.3L26.0454 37.6599C26.6806 37.0228 26.6806 35.9922 26.0454 35.3364C25.7465 35.0178 25.3168 34.8492 24.8871 34.8492V34.8679Z" fill="white"/>
<path d="M19.2443 45.6061C18.3102 45.6061 17.4507 45.2501 16.8155 44.5942C15.4703 43.2451 15.4703 41.034 16.8155 39.6849L22.4578 34.0634C23.7656 32.7705 26.0449 32.7705 27.3527 34.0634C28.6792 35.4313 28.6792 37.6237 27.3527 38.9541L21.6918 44.5942C21.0752 45.2313 20.1971 45.5873 19.263 45.5873L19.2443 45.6061ZM24.9053 33.8198C24.1953 33.8198 23.4854 34.0822 22.9622 34.5881L17.32 40.2095C16.255 41.2776 16.255 43.0202 17.32 44.0883C18.3475 45.1189 20.1971 45.1002 21.1687 44.0883L26.8296 38.4481C27.8759 37.3988 27.8945 35.6562 26.8296 34.5881C26.3252 34.0634 25.6152 33.8198 24.9053 33.8198ZM19.263 44.1445C18.7212 44.1445 18.1981 43.9384 17.8431 43.5824C17.0584 42.7954 17.0584 41.5212 17.8431 40.7342L23.4854 35.1128C24.2514 34.3445 25.5779 34.3633 26.3252 35.1128C27.0912 35.8998 27.0912 37.174 26.3252 37.9422L20.6642 43.5824C20.3279 43.9197 19.8235 44.1258 19.2817 44.1258L19.263 44.1445ZM24.9053 35.2439C24.569 35.2439 24.2514 35.3751 24.0085 35.6187L18.3662 41.2401C17.8618 41.746 17.8618 42.5518 18.3662 43.0577C18.5904 43.2826 18.908 43.4137 19.263 43.4137C19.618 43.4137 19.9356 43.2826 20.1224 43.0764L25.7834 37.4176C26.2691 36.9304 26.2691 36.1246 25.7834 35.6187C25.5405 35.3751 25.2229 35.2439 24.8679 35.2439H24.9053Z" fill="white"/>
<path d="M15.9186 41.8769C15.0966 41.8769 14.2932 41.5396 13.7327 40.9588C13.1535 40.3966 12.8359 39.6284 12.8359 38.8039C12.8359 37.9794 13.1535 37.1924 13.7514 36.6115L19.3937 30.9714C20.5707 29.8096 22.6445 29.8284 23.7655 30.9901C24.9612 32.1894 24.9612 34.1568 23.7655 35.3748L18.1232 40.9962C17.5441 41.5771 16.7594 41.8957 15.9373 41.8957L15.9186 41.8769ZM21.5609 31.5148C21.1125 31.5148 20.7015 31.6834 20.4026 31.9832L14.7603 37.6234C14.4427 37.9419 14.2745 38.3542 14.2745 38.7851C14.2745 39.2161 14.4427 39.6284 14.7416 39.9282C15.3395 40.5653 16.4231 40.5653 17.0583 39.9282L22.7006 34.3068C23.3358 33.6697 23.3358 32.6203 22.7006 31.9832C22.4016 31.6834 21.9906 31.5148 21.5422 31.5148H21.5609Z" fill="white"/>
<path d="M15.9181 42.2514C15.0027 42.2514 14.1059 41.8766 13.4707 41.2208C12.8354 40.5837 12.4805 39.7218 12.4805 38.8036C12.4805 37.8854 12.8354 37.0047 13.508 36.3489L19.1503 30.7088C19.7668 30.0904 20.6636 29.7344 21.5978 29.7344C21.5978 29.7344 21.6165 29.7344 21.6351 29.7344C22.5693 29.7344 23.4474 30.1091 24.0452 30.7275C25.3717 32.0766 25.3717 34.269 24.0266 35.6181L18.3843 41.2395C17.7304 41.8766 16.8523 42.2514 15.9555 42.2514H15.9181ZM21.5791 30.4652C20.8318 30.4652 20.1405 30.7275 19.6547 31.2147L14.0125 36.8548C13.4894 37.3795 13.2091 38.0728 13.2091 38.8036C13.2091 39.5344 13.4894 40.2089 13.9938 40.7149C14.984 41.7455 16.8149 41.7642 17.8425 40.7336L23.4848 35.1122C24.5497 34.0441 24.5497 32.3202 23.4848 31.2522C23.0177 30.765 22.3264 30.4839 21.5791 30.4839H21.5604L21.5791 30.4652ZM15.9181 40.7898C15.3763 40.7898 14.8719 40.565 14.5169 40.2089C14.1433 39.8342 13.9377 39.347 13.9377 38.8223C13.9377 38.2789 14.1433 37.773 14.5356 37.3982L20.1779 31.7581C20.9252 31.0086 22.289 31.0273 22.999 31.7581C23.765 32.5263 23.765 33.7631 23.0364 34.5501L22.999 34.5875L17.3567 40.2089C16.9831 40.565 16.4786 40.7898 15.9368 40.7711L15.9181 40.7898ZM21.5791 31.8893C21.2428 31.8893 20.9065 32.0204 20.6823 32.2453L15.04 37.8854C14.7972 38.129 14.6664 38.4476 14.6664 38.8036C14.6664 39.1409 14.7972 39.4594 15.04 39.6843C15.2642 39.9091 15.5818 40.0403 15.9181 40.059C16.2544 40.059 16.5907 39.9279 16.8149 39.703L22.4011 34.1191L22.4759 33.9692H22.5319C22.9429 33.4632 22.9056 32.7325 22.4385 32.264C22.2143 32.0204 21.8967 31.908 21.5417 31.8893H21.5791Z" fill="white"/>
<path d="M12.5738 38.523C11.7517 38.523 10.9857 38.2044 10.4065 37.6048C9.82738 37.0239 9.50977 36.2557 9.50977 35.4312C9.50977 34.6067 9.82738 33.8197 10.4252 33.2388L16.0675 27.6174C17.2445 26.4557 19.2623 26.4557 20.4206 27.6174C20.9998 28.1983 21.3174 28.9666 21.3174 29.791C21.3174 30.6155 20.9998 31.4025 20.402 31.9834L14.7597 37.6048C14.1805 38.1857 13.3958 38.5042 12.5738 38.5042V38.523ZM18.216 28.1608C17.7863 28.1608 17.3753 28.3295 17.0577 28.648L11.4154 34.2694C11.0978 34.588 10.9297 35.0002 10.9297 35.4312C10.9297 35.8622 11.0978 36.2744 11.3967 36.5742C12.032 37.2113 13.0782 37.2113 13.7134 36.5742L19.3557 30.9528C19.6733 30.6342 19.8415 30.222 19.8415 29.791C19.8415 29.3601 19.6733 28.9478 19.3744 28.648C19.0568 28.3295 18.6644 28.1608 18.216 28.1608Z" fill="white"/>
<path d="M12.5744 38.8795C11.6589 38.8795 10.7995 38.5235 10.1456 37.8489C9.4917 37.2118 9.13672 36.3499 9.13672 35.413C9.13672 34.4948 9.4917 33.6141 10.1643 32.9583L15.8066 27.3369C17.1144 26.044 19.375 26.044 20.6828 27.3369C21.3367 27.974 21.6917 28.8547 21.6917 29.7728C21.6917 30.691 21.3367 31.5717 20.6641 32.2275L15.0219 37.8489C14.368 38.486 13.4899 38.8608 12.5931 38.8608L12.5744 38.8795ZM18.2353 27.0933C17.5254 27.0933 16.8154 27.3369 16.311 27.8615L10.6687 33.483C10.1456 34.0076 9.86536 34.7009 9.86536 35.4317C9.86536 36.1625 10.1456 36.8371 10.6687 37.343C11.6963 38.3736 13.4899 38.3736 14.5174 37.343L20.1597 31.7216C20.6828 31.1969 20.9631 30.5036 20.9631 29.7728C20.9631 29.042 20.6828 28.3675 20.1597 27.8615C19.6552 27.3556 18.9453 27.0933 18.2353 27.0933ZM12.5931 37.3992C12.0699 37.3992 11.5655 37.2118 11.1732 36.8183C10.7995 36.4436 10.594 35.9564 10.594 35.413C10.594 34.8696 10.7995 34.3636 11.1918 33.9889L16.8341 28.3675C17.6001 27.5992 18.8892 27.618 19.6552 28.3675C20.0289 28.7422 20.2344 29.2294 20.2344 29.7728C20.2344 30.2975 20.0476 30.7847 19.6926 31.1594L19.6552 31.1969L14.013 36.8183C13.6393 37.1931 13.1162 37.3805 12.6118 37.3805L12.5931 37.3992ZM18.2353 28.4986C17.899 28.4986 17.5814 28.6298 17.3386 28.8734L11.6963 34.4948C11.4534 34.7384 11.3226 35.057 11.3226 35.3942C11.3226 35.7315 11.4534 36.0501 11.6963 36.2749C12.182 36.7621 13.0041 36.7809 13.4899 36.2749L19.1321 30.6535C19.375 30.4099 19.5058 30.0914 19.5058 29.7354C19.5058 29.3981 19.375 29.0795 19.1321 28.8547C18.8706 28.5923 18.5716 28.4612 18.2353 28.4612V28.4986Z" fill="white"/>
<path d="M43.9801 35.2285C43.7933 35.2285 43.6065 35.1536 43.4757 35.0224L34.0408 25.541L30.4163 29.1574C29.1271 30.4503 26.8665 30.4503 25.5774 29.1574C24.1014 27.6771 23.298 25.7096 23.3167 23.6297C23.3167 21.5498 24.1388 19.5823 25.6147 18.102L30.0987 13.6236C33.966 9.74478 37.0487 12.8553 38.7115 14.523L50.8181 27.4335C51.0797 27.7146 51.0797 28.1643 50.8181 28.4266L44.5032 34.9849C44.3725 35.1161 44.1856 35.2098 43.9801 35.2098V35.2285ZM34.0221 23.7796C34.2089 23.7796 34.3771 23.8545 34.5265 23.9857L35.4046 24.8289L43.9801 33.4672L49.3048 27.9394L37.684 15.5348C35.1804 13.0052 33.555 12.2369 31.1262 14.6354L26.6423 19.1138C25.4466 20.313 24.774 21.9058 24.774 23.6109C24.774 25.3161 25.4279 26.9088 26.6236 28.1081C27.3709 28.8576 28.6601 28.8576 29.4074 28.1081L33.5363 23.9857C33.6858 23.8358 33.8726 23.7796 34.0408 23.7796H34.0221Z" fill="white"/>
<path d="M43.9804 35.5838C43.7002 35.5838 43.4199 35.4713 43.2144 35.2652L34.0411 26.0274L30.6594 29.4002C29.9682 30.0748 28.9967 30.4683 27.9878 30.4683C26.9789 30.4683 26.0074 30.0748 25.3161 29.3815C23.7841 27.8262 22.9434 25.7838 22.9434 23.5914C22.9434 21.3991 23.8028 19.3566 25.3535 17.8201L29.8374 13.3417C31.6123 11.5616 33.4806 10.9807 35.3489 11.6365C36.8809 12.1612 38.1326 13.4167 38.9547 14.2599L51.08 27.2079C51.4723 27.6388 51.4723 28.2947 51.08 28.7069L44.7651 35.2652C44.5596 35.4713 44.2793 35.6025 43.9991 35.6025L43.9804 35.5838ZM34.0224 24.9968L43.7002 34.7406C43.7002 34.7406 43.8683 34.853 43.9617 34.853C43.9617 34.853 44.1486 34.8155 44.2233 34.7406L50.5381 28.1822C50.6689 28.0511 50.6689 27.8262 50.5381 27.6763L38.4316 14.7471C37.6095 13.9038 36.4699 12.7796 35.0873 12.2924C33.4806 11.749 31.9112 12.2362 30.3231 13.8289L25.8392 18.3073C24.438 19.7126 23.6533 21.5864 23.6533 23.5727C23.6533 25.5589 24.4193 27.4327 25.8205 28.8568C26.3623 29.4002 27.147 29.7188 27.9691 29.7188C28.7911 29.7188 29.5758 29.4002 30.1363 28.8568L34.0224 24.978V24.9968ZM43.9617 33.9723L34.2653 24.2473C34.1345 24.1161 33.8916 24.1161 33.7608 24.2473L29.6319 28.3696C28.7911 29.2128 27.1844 29.2128 26.3437 28.3696C25.0732 27.0954 24.382 25.409 24.382 23.6102C24.382 21.8113 25.0919 20.1249 26.3623 18.8507L30.8463 14.3723C33.4619 11.7677 35.3489 12.6671 37.9084 15.2717L49.7721 27.9386L43.9617 33.991V33.9723ZM34.0037 23.404C34.2839 23.404 34.5455 23.5165 34.751 23.7038L35.6291 24.5471L43.9431 32.9417L48.7633 27.9199L37.3666 15.7589C34.9378 13.323 33.574 12.6484 31.332 14.8782L26.8481 19.3566C25.7084 20.4809 25.0919 21.9987 25.0919 23.5914C25.0919 25.1842 25.7084 26.7019 26.8294 27.845C27.4086 28.4258 28.5296 28.4258 29.1087 27.845L33.2377 23.7226C33.4432 23.5165 33.7235 23.404 34.0037 23.404Z" fill="white"/>
<path d="M54.0498 27.0205C53.3212 27.0205 52.6299 26.7395 52.1255 26.2148L34.9745 8.91957C33.9095 7.8515 33.9095 6.10886 34.9745 5.04079L38.8232 1.19949C39.8881 0.13142 41.6256 0.13142 42.6906 1.19949L59.8416 18.4947C60.9065 19.5628 60.9065 21.3054 59.8416 22.3735L55.9929 26.2148C55.4697 26.7395 54.7785 27.0205 54.0498 27.0205ZM40.7475 1.87406C40.4112 1.87406 40.0749 2.00523 39.8321 2.24882L35.9834 6.09012C35.4789 6.59605 35.4789 7.40178 35.9834 7.90771L53.1344 25.2029C53.6201 25.6901 54.4608 25.6901 54.9466 25.2029L58.7953 21.3616C59.0382 21.118 59.169 20.7995 59.169 20.4435C59.169 20.0874 59.0382 19.7689 58.7953 19.5253L41.663 2.24882C41.4201 2.00523 41.1025 1.87406 40.7475 1.87406Z" fill="white"/>
<path d="M54.0501 27.3966C53.228 27.3966 52.4434 27.0781 51.8642 26.4785L34.7132 9.18325C34.134 8.60237 33.8164 7.81537 33.8164 6.9909C33.8164 6.16643 34.134 5.37943 34.7319 4.79855L38.5806 0.957248C39.795 -0.260725 41.7567 -0.241987 42.9711 0.957248L60.1221 18.2525C60.7012 18.8333 61.0189 19.6203 61.0189 20.4448C61.0189 21.2693 60.7012 22.0563 60.1034 22.6372L56.2547 26.4785C55.6755 27.0593 54.8908 27.3779 54.0688 27.3779L54.0501 27.3966ZM40.7665 0.788606C40.1499 0.788606 39.5521 1.01346 39.085 1.48191L35.2363 5.32321C34.7879 5.77293 34.545 6.37254 34.545 7.00964C34.545 7.64673 34.7879 8.24635 35.2363 8.69606L52.3873 25.9913C53.2841 26.8907 54.8535 26.8907 55.7502 25.9913L59.5989 22.15C60.0473 21.7003 60.2902 21.1007 60.2902 20.4636C60.2902 19.8265 60.0473 19.2268 59.5989 18.7771L42.4293 1.48191C41.9622 1.01346 41.3643 0.788606 40.7478 0.788606H40.7665ZM54.0501 25.9351C53.6204 25.9351 53.2094 25.7664 52.8918 25.4479L35.7408 8.15266C35.4231 7.83411 35.255 7.42188 35.255 6.9909C35.255 6.54119 35.4231 6.12895 35.7408 5.82914L39.5895 1.98784C40.2247 1.36948 41.2896 1.36948 41.9248 1.98784L59.0758 19.2831C59.3934 19.6016 59.5616 20.0138 59.5616 20.4448C59.5616 20.8945 59.3934 21.3068 59.0758 21.6066L55.2271 25.4479C54.9095 25.7664 54.4798 25.9163 54.0688 25.9163L54.0501 25.9351ZM40.7478 2.23144C40.5049 2.23144 40.262 2.32513 40.0939 2.49377L36.2452 6.33507C36.077 6.50371 35.965 6.74731 35.965 6.9909C35.965 7.23449 36.0584 7.47809 36.2265 7.64673L53.3775 24.942C53.7325 25.298 54.3303 25.298 54.6853 24.942L58.534 21.1007C58.7022 20.932 58.8143 20.6884 58.8143 20.4448C58.8143 20.2012 58.7208 19.9576 58.5527 19.789L41.4017 2.51251C41.2336 2.34386 40.9907 2.23144 40.7478 2.23144Z" fill="white"/>
<path d="M6.91244 26.9065C6.1838 26.9065 5.49253 26.6254 4.98809 26.1008L1.15807 22.2407C0.0931423 21.1727 0.0931423 19.43 1.15807 18.362L18.4025 1.16043C19.4674 0.0923578 21.2049 0.0923578 22.2699 1.16043L26.0999 5.02046C27.1648 6.08853 27.1648 7.83117 26.0999 8.89924L8.85547 26.1008C8.33235 26.6254 7.64107 26.9065 6.91244 26.9065ZM20.3455 1.81626C20.0092 1.81626 19.6729 1.94742 19.43 2.19102L2.18564 19.3925C1.94276 19.6361 1.81198 19.9547 1.81198 20.3107C1.81198 20.648 1.94276 20.9853 2.18564 21.2289L6.01565 25.0889C6.50141 25.5761 7.34215 25.5761 7.8279 25.0889L25.0723 7.86865C25.5768 7.36272 25.5768 6.55698 25.0723 6.05106L21.2423 2.19102C20.9994 1.94742 20.6818 1.81626 20.3268 1.81626H20.3455Z" fill="white"/>
<path d="M6.91271 27.2639C6.09066 27.2639 5.30597 26.9453 4.7268 26.3457L0.896784 22.4857C0.317611 21.9048 0 21.1178 0 20.2933C0 19.4688 0.317611 18.6818 0.915467 18.101L18.1412 0.899426C19.3556 -0.299809 21.3173 -0.299809 22.5317 0.899426L26.3617 4.75946C26.9409 5.34034 27.2585 6.12734 27.2585 6.95182C27.2585 7.77629 26.9409 8.56329 26.343 9.14417L9.09862 26.3644C8.51945 26.9453 7.73476 27.2639 6.91271 27.2639ZM20.3458 0.730784C19.7292 0.730784 19.1314 0.955641 18.6643 1.42409L1.41991 18.6069C0.971516 19.0566 0.728637 19.6562 0.728637 20.2933C0.728637 20.9304 0.971516 21.53 1.41991 21.9797L5.24992 25.8398C6.14671 26.7392 7.71608 26.7392 8.61286 25.8398L25.8386 8.65698C26.287 8.20727 26.5299 7.60765 26.5299 6.97055C26.5299 6.33346 26.287 5.73384 25.8386 5.28413L22.0086 1.42409C21.5415 0.955641 20.9436 0.730784 20.3271 0.730784H20.3458ZM6.91271 25.8023C6.483 25.8023 6.07197 25.6337 5.75436 25.3338L1.92435 21.4738C1.60674 21.1553 1.43859 20.743 1.43859 20.312C1.43859 19.8623 1.60674 19.4501 1.92435 19.1503L19.1688 1.93002C19.804 1.31166 20.8689 1.31166 21.5041 1.93002L25.3341 5.79006C25.6518 6.1086 25.8199 6.52084 25.8199 6.95182C25.8199 7.40153 25.6518 7.81377 25.3341 8.11358L8.08974 25.3338C7.77213 25.6524 7.34242 25.8023 6.93139 25.8023H6.91271ZM20.3271 2.17361C20.0842 2.17361 19.8413 2.2673 19.6732 2.43595L2.44747 19.6375C2.27933 19.8061 2.16723 20.0497 2.16723 20.2933C2.16723 20.5369 2.26064 20.7805 2.42879 20.9491L6.2588 24.8092C6.61378 25.1652 7.21164 25.1652 7.56662 24.8092L24.811 7.62639C24.9792 7.45774 25.0913 7.21415 25.0913 6.97055C25.0913 6.72696 24.9979 6.48337 24.8297 6.31472L20.9997 2.45468C20.8315 2.28604 20.5887 2.17361 20.3458 2.17361H20.3271Z" fill="white"/>
<path d="M44.1296 41.128C43.3449 41.128 42.5416 40.8282 41.9437 40.2098L36.9553 35.1693C36.6751 34.8882 36.6751 34.4197 36.9553 34.1387C37.2356 33.8576 37.7027 33.8576 37.9829 34.1387L42.9713 39.1792C43.6065 39.8163 44.6527 39.8163 45.288 39.1792C45.6056 38.8607 45.7737 38.4672 45.7737 38.0175C45.7737 37.5865 45.6056 37.1742 45.3066 36.8557L33.5364 24.9758C33.2561 24.6947 33.2561 24.2262 33.5364 23.9452C33.8166 23.6641 34.2837 23.6641 34.5639 23.9452L46.3342 35.8251C47.5299 37.0431 47.5299 38.9918 46.3342 40.2098C45.7364 40.8094 44.933 41.1092 44.1483 41.1092L44.1296 41.128Z" fill="white"/>
<path d="M44.1294 41.4853C43.2139 41.4853 42.3358 41.1293 41.7006 40.4735L36.7122 35.433C36.2825 35.002 36.2825 34.3087 36.7122 33.8964C37.1233 33.4842 37.8332 33.4842 38.2442 33.8964L43.2326 38.937C43.7184 39.4242 44.5591 39.4242 45.0262 38.937C45.269 38.6934 45.3998 38.3748 45.3998 38.0375C45.3998 37.7003 45.269 37.3817 45.0262 37.1381L33.2559 25.2582C32.8262 24.8272 32.8262 24.1339 33.2559 23.7217C33.6856 23.2907 34.3769 23.2907 34.7879 23.7217L46.5582 35.6016C47.9034 36.9507 47.8847 39.1431 46.5582 40.4922C45.9043 41.1481 45.0449 41.5041 44.1107 41.5041L44.1294 41.4853ZM37.4782 34.2899C37.3848 34.2899 37.2914 34.3274 37.2167 34.4024C37.0672 34.5523 37.0672 34.7771 37.2167 34.9083L42.205 39.9488C43.2326 40.9794 45.0262 40.9794 46.0537 39.9488C47.1187 38.8808 47.1187 37.1569 46.0537 36.0888L34.2834 24.2089C34.134 24.059 33.9098 24.059 33.779 24.2089C33.6295 24.3588 33.6295 24.5836 33.779 24.7148L45.5493 36.5947C45.923 36.9695 46.1285 37.4754 46.1285 38.0188C46.1285 38.5435 45.923 39.0494 45.5306 39.4429C44.7646 40.1924 43.4568 40.1924 42.7095 39.4429L37.7211 34.4024C37.7211 34.4024 37.553 34.2899 37.4596 34.2899H37.4782Z" fill="white"/>
</g>
<defs>
<clipPath id="clip0_62818_2383">
<rect width="61" height="49" fill="white"/>
</clipPath>
</defs>
</svg>
